<?xml version="1.0" encoding="UTF-8" standalone="no"?>
<!DOCTYPE svg PUBLIC "-//W3C//DTD SVG 1.0//EN"
 "http://www.w3.org/TR/2001/REC-SVG-20010904/DTD/svg10.dtd" [
 <!ATTLIST svg xmlns:xlink CDATA #FIXED "http://www.w3.org/1999/xlink">
]>
<!-- Generated by Graphviz version 2.20.3 (Fri Feb 13 02:52:03 UTC 2009)
     For user: (kevin) Kevin Tonon -->
<!-- Title: Models Pages: 1 -->
<svg width="756pt" height="260pt"
 viewBox="0.00 0.00 756.00 260.00" xmlns="http://www.w3.org/2000/svg" xmlns:xlink="http://www.w3.org/1999/xlink">
<g id="graph0" class="graph" transform="scale(1 1) rotate(0) translate(4 256)">
<title>Models</title>
<polygon style="fill:white;stroke:white;" points="-4,4 -4,-256 752,-256 752,4 -4,4"/>
<!-- 0 -->
<g id="node1" class="node"><title>0</title>
<ellipse style="fill:#99cc66;stroke:black;" cx="311" cy="-90" rx="27" ry="18"/>
<text text-anchor="middle" x="311" y="-83.4" style="font-family:Times New Roman;font-size:14.00;">Type</text>
</g>
<!-- 1 -->
<g id="node2" class="node"><title>1</title>
<ellipse style="fill:#99cc66;stroke:black;" cx="311" cy="-18" rx="31.8709" ry="18"/>
<text text-anchor="middle" x="311" y="-11.4" style="font-family:Times New Roman;font-size:14.00;">Interface</text>
</g>
<!-- 0&#45;&gt;1 -->
<g id="edge2" class="edge"><title>0&#45;&gt;1</title>
<a xlink:title="Type.implements &lt;&#45;&#45;&gt; Interface.implemented_by">
<path style="fill:none;stroke:black;" d="M311,-62C311,-57 311,-51 311,-46"/>
<polygon style="fill:black;stroke:black;" points="307.5,-62 311,-72 314.5,-62 307.5,-62"/>
<polygon style="fill:black;stroke:black;" points="314.5,-46 311,-36 307.5,-46 314.5,-46"/>
</a>
<a xlink:title="Type.implements &lt;&#45;&#45;&gt; Interface.implemented_by">
</a>
<a xlink:title="Type.implements &lt;&#45;&#45;&gt; Interface.implemented_by">
</a>
</g>
<!-- 2 -->
<g id="node3" class="node"><title>2</title>
<ellipse style="fill:#99cc66;stroke:black;" cx="629" cy="-90" rx="28.9661" ry="18"/>
<text text-anchor="middle" x="629" y="-83.4" style="font-family:Times New Roman;font-size:14.00;">Method</text>
</g>
<!-- 2&#45;&gt;1 -->
<g id="edge4" class="edge"><title>2&#45;&gt;1</title>
<a xlink:title="Method.interface &#45;&#45;&#45;&gt; Interface.methods">
<path style="fill:none;stroke:black;" d="M602,-84C545,-71 417,-42 351,-27"/>
<polygon style="fill:black;stroke:black;" points="351.492,-23.5292 341,-25 350.119,-30.3933 351.492,-23.5292"/>
</a>
<a xlink:title="Method.interface &#45;&#45;&#45;&gt; Interface.methods">
</a>
<a xlink:title="Method.interface &#45;&#45;&#45;&gt; Interface.methods">
</a>
</g>
<!-- 3 -->
<g id="node4" class="node"><title>3</title>
<ellipse style="fill:#99cc66;stroke:black;" cx="268" cy="-162" rx="48.107" ry="18"/>
<text text-anchor="middle" x="268" y="-155.4" style="font-family:Times New Roman;font-size:14.00;">TypeParameter</text>
</g>
<!-- 3&#45;&gt;0 -->
<g id="edge6" class="edge"><title>3&#45;&gt;0</title>
<a xlink:title="TypeParameter.of type &#45;&#45;&#45;&gt; Type.parameters">
<path style="fill:none;stroke:black;" d="M279,-144C284,-136 290,-125 296,-116"/>
<polygon style="fill:black;stroke:black;" points="299.203,-117.441 301,-107 293.084,-114.042 299.203,-117.441"/>
</a>
<a xlink:title="TypeParameter.of type &#45;&#45;&#45;&gt; Type.parameters">
</a>
<a xlink:title="TypeParameter.of type &#45;&#45;&#45;&gt; Type.parameters">
</a>
</g>
<!-- 4 -->
<g id="node5" class="node"><title>4</title>
<ellipse style="fill:#99cc66;stroke:black;" cx="164" cy="-90" rx="81.7819" ry="18"/>
<text text-anchor="middle" x="164" y="-83.4" style="font-family:Times New Roman;font-size:14.00;">InterfaceTemplateParameter</text>
</g>
<!-- 4&#45;&gt;1 -->
<g id="edge8" class="edge"><title>4&#45;&gt;1</title>
<a xlink:title="InterfaceTemplateParameter.of interface &#45;&#45;&#45;&gt; Interface.template_parameters">
<path style="fill:none;stroke:black;" d="M198,-73C222,-62 253,-46 278,-34"/>
<polygon style="fill:black;stroke:black;" points="279.283,-37.2598 287,-30 276.44,-30.8631 279.283,-37.2598"/>
</a>
<a xlink:title="InterfaceTemplateParameter.of interface &#45;&#45;&#45;&gt; Interface.template_parameters">
</a>
<a xlink:title="InterfaceTemplateParameter.of interface &#45;&#45;&#45;&gt; Interface.template_parameters">
</a>
</g>
<!-- 5 -->
<g id="node6" class="node"><title>5</title>
<ellipse style="fill:#99cc66;stroke:black;" cx="101" cy="-162" rx="101.125" ry="18"/>
<text text-anchor="middle" x="101" y="-155.4" style="font-family:Times New Roman;font-size:14.00;">InterfaceTemplateParameterBinding</text>
</g>
<!-- 5&#45;&gt;0 -->
<g id="edge10" class="edge"><title>5&#45;&gt;0</title>
<a xlink:title="InterfaceTemplateParameterBinding.type &#45;&#45;&#45;&gt; Type.">
<path style="fill:none;stroke:black;" d="M148,-146C187,-132 242,-114 277,-101"/>
<polygon style="fill:black;stroke:black;" points="278.427,-104.226 287,-98 276.416,-97.5212 278.427,-104.226"/>
</a>
<a xlink:title="InterfaceTemplateParameterBinding.type &#45;&#45;&#45;&gt; Type.">
</a>
<a xlink:title="InterfaceTemplateParameterBinding.type &#45;&#45;&#45;&gt; Type.">
</a>
</g>
<!-- 5&#45;&gt;4 -->
<g id="edge12" class="edge"><title>5&#45;&gt;4</title>
<a xlink:title="InterfaceTemplateParameterBinding.parameter &#45;&#45;&#45;&gt; InterfaceTemplateParameter.">
<path style="fill:none;stroke:black;" d="M117,-144C124,-135 133,-125 141,-116"/>
<polygon style="fill:black;stroke:black;" points="144.049,-117.831 148,-108 138.781,-113.221 144.049,-117.831"/>
</a>
<a xlink:title="InterfaceTemplateParameterBinding.parameter &#45;&#45;&#45;&gt; InterfaceTemplateParameter.">
</a>
<a xlink:title="InterfaceTemplateParameterBinding.parameter &#45;&#45;&#45;&gt; InterfaceTemplateParameter.">
</a>
</g>
<!-- 6 -->
<g id="node7" class="node"><title>6</title>
<ellipse style="fill:#99cc66;stroke:black;" cx="694" cy="-162" rx="54.2197" ry="18"/>
<text text-anchor="middle" x="694" y="-155.4" style="font-family:Times New Roman;font-size:14.00;">MethodParameter</text>
</g>
<!-- 6&#45;&gt;2 -->
<g id="edge14" class="edge"><title>6&#45;&gt;2</title>
<a xlink:title="MethodParameter.of method &#45;&#45;&#45;&gt; Method.parameters">
<path style="fill:none;stroke:black;" d="M678,-145C669,-135 659,-123 650,-113"/>
<polygon style="fill:black;stroke:black;" points="652.546,-110.596 643,-106 647.596,-115.546 652.546,-110.596"/>
</a>
<a xlink:title="MethodParameter.of method &#45;&#45;&#45;&gt; Method.parameters">
</a>
<a xlink:title="MethodParameter.of method &#45;&#45;&#45;&gt; Method.parameters">
</a>
</g>
<!-- 7 -->
<g id="node8" class="node"><title>7</title>
<ellipse style="fill:#99cc66;stroke:black;" cx="478" cy="-162" rx="72.1605" ry="18"/>
<text text-anchor="middle" x="478" y="-155.4" style="font-family:Times New Roman;font-size:14.00;">TypeTemplateParameter</text>
</g>
<!-- 7&#45;&gt;0 -->
<g id="edge16" class="edge"><title>7&#45;&gt;0</title>
<a xlink:title="TypeTemplateParameter.of type &#45;&#45;&#45;&gt; Type.template_parameters">
<path style="fill:none;stroke:black;" d="M442,-146C412,-133 372,-116 343,-104"/>
<polygon style="fill:black;stroke:black;" points="344.56,-100.863 334,-100 341.717,-107.26 344.56,-100.863"/>
</a>
<a xlink:title="TypeTemplateParameter.of type &#45;&#45;&#45;&gt; Type.template_parameters">
</a>
<a xlink:title="TypeTemplateParameter.of type &#45;&#45;&#45;&gt; Type.template_parameters">
</a>
</g>
<!-- 8 -->
<g id="node9" class="node"><title>8</title>
<ellipse style="fill:#cc6699;stroke:black;" cx="478" cy="-234" rx="92.1054" ry="18"/>
<text text-anchor="middle" x="478" y="-227.4" style="font-family:Times New Roman;font-size:14.00;">TypeTemplateParameterBinding</text>
</g>
<!-- 8&#45;&gt;7 -->
<g id="edge24" class="edge"><title>8&#45;&gt;7</title>
<a xlink:title="TypeTemplateParameterBinding.parameter &#45;&#45;&#45;&gt; TypeTemplateParameter.">
<path style="fill:none;stroke:black;" d="M478,-216C478,-208 478,-199 478,-190"/>
<polygon style="fill:black;stroke:black;" points="481.5,-190 478,-180 474.5,-190 481.5,-190"/>
</a>
<a xlink:title="TypeTemplateParameterBinding.parameter &#45;&#45;&#45;&gt; TypeTemplateParameter.">
</a>
<a xlink:title="TypeTemplateParameterBinding.parameter &#45;&#45;&#45;&gt; TypeTemplateParameter.">
</a>
</g>
<!-- 9 -->
<g id="node10" class="node"><title>9</title>
<ellipse style="fill:#cc6699;stroke:black;" cx="361" cy="-162" rx="27" ry="18"/>
<text text-anchor="middle" x="361" y="-155.4" style="font-family:Times New Roman;font-size:14.00;">Object</text>
</g>
<!-- 8&#45;&gt;9 -->
<g id="edge22" class="edge"><title>8&#45;&gt;9</title>
<a xlink:title="TypeTemplateParameterBinding.object &#45;&#45;&#45;&gt; Object.">
<path style="fill:none;stroke:black;" d="M450,-217C432,-206 408,-191 390,-179"/>
<polygon style="fill:black;stroke:black;" points="391.441,-175.797 381,-174 388.042,-181.916 391.441,-175.797"/>
</a>
<a xlink:title="TypeTemplateParameterBinding.object &#45;&#45;&#45;&gt; Object.">
</a>
<a xlink:title="TypeTemplateParameterBinding.object &#45;&#45;&#45;&gt; Object.">
</a>
</g>
<!-- 9&#45;&gt;0 -->
<g id="edge20" class="edge"><title>9&#45;&gt;0</title>
<a xlink:title="Object.type &#45;&#45;&#45;&gt; Type.instances">
<path style="fill:none;stroke:black;" d="M350,-146C344,-137 336,-125 329,-115"/>
<polygon style="fill:black;stroke:black;" points="331.8,-112.9 323,-107 326.2,-117.1 331.8,-112.9"/>
</a>
<a xlink:title="Object.type &#45;&#45;&#45;&gt; Type.instances">
</a>
<a xlink:title="Object.type &#45;&#45;&#45;&gt; Type.instances">
</a>
</g>
<!-- 10 -->
<g id="node11" class="node"><title>10</title>
<ellipse style="fill:#cc6699;stroke:black;" cx="426" cy="-90" rx="27" ry="18"/>
<text text-anchor="middle" x="426" y="-83.4" style="font-family:Times New Roman;font-size:14.00;">Game</text>
</g>
<!-- 9&#45;&gt;10 -->
<g id="edge18" class="edge"><title>9&#45;&gt;10</title>
<a xlink:title="Object.game &#45;&#45;&#45;&gt; Game.">
<path style="fill:none;stroke:black;" d="M375,-146C384,-136 395,-123 405,-113"/>
<polygon style="fill:black;stroke:black;" points="408.049,-114.831 412,-105 402.781,-110.221 408.049,-114.831"/>
</a>
<a xlink:title="Object.game &#45;&#45;&#45;&gt; Game.">
</a>
<a xlink:title="Object.game &#45;&#45;&#45;&gt; Game.">
</a>
</g>
<!-- 11 -->
<g id="node12" class="node"><title>11</title>
<ellipse style="fill:#cc6699;stroke:black;" cx="300" cy="-234" rx="68.0521" ry="18"/>
<text text-anchor="middle" x="300" y="-227.4" style="font-family:Times New Roman;font-size:14.00;">TypeParameterBinding</text>
</g>
<!-- 11&#45;&gt;3 -->
<g id="edge28" class="edge"><title>11&#45;&gt;3</title>
<a xlink:title="TypeParameterBinding.parameter &#45;&#45;&#45;&gt; TypeParameter.bindings">
<path style="fill:none;stroke:black;" d="M292,-216C288,-208 284,-198 280,-189"/>
<polygon style="fill:black;stroke:black;" points="283.26,-187.717 276,-180 276.863,-190.56 283.26,-187.717"/>
</a>
<a xlink:title="TypeParameterBinding.parameter &#45;&#45;&#45;&gt; TypeParameter.bindings">
</a>
<a xlink:title="TypeParameterBinding.parameter &#45;&#45;&#45;&gt; TypeParameter.bindings">
</a>
</g>
<!-- 11&#45;&gt;9 -->
<g id="edge26" class="edge"><title>11&#45;&gt;9</title>
<a xlink:title="TypeParameterBinding.instance &#45;&#45;&#45;&gt; Object.parameter_bindings">
<path style="fill:none;stroke:black;" d="M309,-216C316,-206 327,-194 336,-183"/>
<polygon style="fill:black;stroke:black;" points="338.404,-185.546 343,-176 333.454,-180.596 338.404,-185.546"/>
</a>
<a xlink:title="TypeParameterBinding.instance &#45;&#45;&#45;&gt; Object.parameter_bindings">
</a>
<a xlink:title="TypeParameterBinding.instance &#45;&#45;&#45;&gt; Object.parameter_bindings">
</a>
</g>
<!-- 11&#45;&gt;9 -->
<g id="edge30" class="edge"><title>11&#45;&gt;9</title>
<a xlink:title="TypeParameterBinding.object argument &#45;&#45;&#45;&gt; Object.bound_to">
<path style="fill:none;stroke:black;" d="M321,-217C330,-208 339,-197 346,-187"/>
<polygon style="fill:black;stroke:black;" points="348.8,-189.1 352,-179 343.2,-184.9 348.8,-189.1"/>
</a>
<a xlink:title="TypeParameterBinding.object argument &#45;&#45;&#45;&gt; Object.bound_to">
</a>
<a xlink:title="TypeParameterBinding.object argument &#45;&#45;&#45;&gt; Object.bound_to">
</a>
</g>
<!-- 12 -->
<g id="node13" class="node"><title>12</title>
<ellipse style="fill:#cc9966;stroke:black;" cx="595" cy="-162" rx="27" ry="18"/>
<text text-anchor="middle" x="595" y="-155.4" style="font-family:Times New Roman;font-size:14.00;">Match</text>
</g>
<!-- 12&#45;&gt;10 -->
<g id="edge32" class="edge"><title>12&#45;&gt;10</title>
<a xlink:title="Match.game &#45;&#45;&#45;&gt; Game.">
<path style="fill:none;stroke:black;" d="M574,-151C569,-149 564,-146 559,-144 525,-128 486,-113 460,-103"/>
<polygon style="fill:black;stroke:black;" points="460.585,-99.4643 450,-99 457.985,-105.964 460.585,-99.4643"/>
</a>
<a xlink:title="Match.game &#45;&#45;&#45;&gt; Game.">
</a>
<a xlink:title="Match.game &#45;&#45;&#45;&gt; Game.">
</a>
</g>
</g>
</svg>
