<?xml version="1.0" encoding="UTF-8" standalone="no"?>
<!DOCTYPE svg PUBLIC "-//W3C//DTD SVG 1.0//EN"
 "http://www.w3.org/TR/2001/REC-SVG-20010904/DTD/svg10.dtd" [
 <!ATTLIST svg xmlns:xlink CDATA #FIXED "http://www.w3.org/1999/xlink">
]>
<!-- Generated by Graphviz version 2.20.3 (Fri Feb 13 02:52:03 UTC 2009)
     For user: (kevin) Kevin Tonon -->
<!-- Title: Models Pages: 1 -->
<svg width="679pt" height="404pt"
 viewBox="0.00 0.00 679.00 404.00" xmlns="http://www.w3.org/2000/svg" xmlns:xlink="http://www.w3.org/1999/xlink">
<g id="graph0" class="graph" transform="scale(1 1) rotate(0) translate(4 400)">
<title>Models</title>
<polygon style="fill:white;stroke:white;" points="-4,4 -4,-400 675,-400 675,4 -4,4"/>
<!-- 8 -->
<g id="node1" class="node"><title>8</title>
<ellipse style="fill:#99cc66;stroke:black;" cx="246" cy="-234" rx="27" ry="18"/>
<text text-anchor="middle" x="246" y="-227.4" style="font-family:Times New Roman;font-size:14.00;">Type</text>
</g>
<!-- 9 -->
<g id="node2" class="node"><title>9</title>
<ellipse style="fill:#99cc66;stroke:black;" cx="365" cy="-162" rx="31.8709" ry="18"/>
<text text-anchor="middle" x="365" y="-155.4" style="font-family:Times New Roman;font-size:14.00;">Interface</text>
</g>
<!-- 8&#45;&gt;9 -->
<g id="edge10" class="edge"><title>8&#45;&gt;9</title>
<a xlink:title="Type.implements &lt;&#45;&#45;&gt; Interface.implemented_by">
<path style="fill:none;stroke:black;" d="M275,-217C293,-206 316,-191 334,-180"/>
<polygon style="fill:black;stroke:black;" points="273.042,-214.084 266,-222 276.441,-220.203 273.042,-214.084"/>
<polygon style="fill:black;stroke:black;" points="335.958,-182.916 343,-175 332.559,-176.797 335.958,-182.916"/>
</a>
<a xlink:title="Type.implements &lt;&#45;&#45;&gt; Interface.implemented_by">
</a>
<a xlink:title="Type.implements &lt;&#45;&#45;&gt; Interface.implemented_by">
</a>
</g>
<!-- 11 -->
<g id="node4" class="node"><title>11</title>
<ellipse style="fill:#99cc66;stroke:black;" cx="308" cy="-18" rx="30.7732" ry="18"/>
<text text-anchor="middle" x="308" y="-11.4" style="font-family:Times New Roman;font-size:14.00;">Variable</text>
</g>
<!-- 8&#45;&gt;11 -->
<g id="edge12" class="edge"><title>8&#45;&gt;11</title>
<a xlink:title="Type.parameters &lt;&#45;&#45;&gt; Variable.parameter_of">
<path style="fill:none;stroke:black;" d="M254,-206C266,-165 288,-87 300,-46"/>
<polygon style="fill:black;stroke:black;" points="250.521,-205.416 251,-216 257.226,-207.427 250.521,-205.416"/>
<polygon style="fill:black;stroke:black;" points="303.479,-46.584 303,-36 296.774,-44.5725 303.479,-46.584"/>
</a>
<a xlink:title="Type.parameters &lt;&#45;&#45;&gt; Variable.parameter_of">
</a>
<a xlink:title="Type.parameters &lt;&#45;&#45;&gt; Variable.parameter_of">
</a>
</g>
<!-- 10 -->
<g id="node3" class="node"><title>10</title>
<ellipse style="fill:#99cc66;stroke:black;" cx="365" cy="-90" rx="28.9661" ry="18"/>
<text text-anchor="middle" x="365" y="-83.4" style="font-family:Times New Roman;font-size:14.00;">Method</text>
</g>
<!-- 9&#45;&gt;10 -->
<g id="edge8" class="edge"><title>9&#45;&gt;10</title>
<a xlink:title="Interface.methods &lt;&#45;&#45;&gt; Method.used_in">
<path style="fill:none;stroke:black;" d="M365,-134C365,-129 365,-123 365,-118"/>
<polygon style="fill:black;stroke:black;" points="361.5,-134 365,-144 368.5,-134 361.5,-134"/>
<polygon style="fill:black;stroke:black;" points="368.5,-118 365,-108 361.5,-118 368.5,-118"/>
</a>
<a xlink:title="Interface.methods &lt;&#45;&#45;&gt; Method.used_in">
</a>
<a xlink:title="Interface.methods &lt;&#45;&#45;&gt; Method.used_in">
</a>
</g>
<!-- 10&#45;&gt;11 -->
<g id="edge4" class="edge"><title>10&#45;&gt;11</title>
<a xlink:title="Method.returned &#45;&#45;&#45;&gt; Variable.returned_from_method">
<path style="fill:none;stroke:black;" d="M348,-75C340,-66 330,-54 322,-43"/>
<polygon style="fill:black;stroke:black;" points="324.8,-40.9 316,-35 319.2,-45.1 324.8,-40.9"/>
</a>
<a xlink:title="Method.returned &#45;&#45;&#45;&gt; Variable.returned_from_method">
</a>
<a xlink:title="Method.returned &#45;&#45;&#45;&gt; Variable.returned_from_method">
</a>
</g>
<!-- 10&#45;&gt;11 -->
<g id="edge6" class="edge"><title>10&#45;&gt;11</title>
<a xlink:title="Method.parameters &lt;&#45;&#45;&gt; Variable.parameter_of_method">
<path style="fill:none;stroke:black;" d="M351,-65C345,-57 339,-48 333,-41"/>
<polygon style="fill:black;stroke:black;" points="348.2,-67.1 357,-73 353.8,-62.9 348.2,-67.1"/>
<polygon style="fill:black;stroke:black;" points="335.219,-38.221 326,-33 329.951,-42.8306 335.219,-38.221"/>
</a>
<a xlink:title="Method.parameters &lt;&#45;&#45;&gt; Variable.parameter_of_method">
</a>
<a xlink:title="Method.parameters &lt;&#45;&#45;&gt; Variable.parameter_of_method">
</a>
</g>
<!-- 11&#45;&gt;9 -->
<g id="edge2" class="edge"><title>11&#45;&gt;9</title>
<a xlink:title="Variable.interface &#45;&#45;&#45;&gt; Interface.">
<path style="fill:none;stroke:black;" d="M309,-36C312,-55 316,-84 327,-108 332,-118 339,-128 345,-138"/>
<polygon style="fill:black;stroke:black;" points="342.2,-140.1 351,-146 347.8,-135.9 342.2,-140.1"/>
</a>
<a xlink:title="Variable.interface &#45;&#45;&#45;&gt; Interface.">
</a>
<a xlink:title="Variable.interface &#45;&#45;&#45;&gt; Interface.">
</a>
</g>
<!-- 12 -->
<g id="node5" class="node"><title>12</title>
<ellipse style="fill:#99cc66;stroke:black;" cx="437" cy="-306" rx="101.125" ry="18"/>
<text text-anchor="middle" x="437" y="-299.4" style="font-family:Times New Roman;font-size:14.00;">InterfaceTemplateParameterBinding</text>
</g>
<!-- 12&#45;&gt;8 -->
<g id="edge14" class="edge"><title>12&#45;&gt;8</title>
<a xlink:title="InterfaceTemplateParameterBinding.type &#45;&#45;&#45;&gt; Type.">
<path style="fill:none;stroke:black;" d="M387,-290C356,-280 316,-266 282,-252 280,-251 278,-251 276,-250"/>
<polygon style="fill:black;stroke:black;" points="277.441,-246.797 267,-245 274.042,-252.916 277.441,-246.797"/>
</a>
<a xlink:title="InterfaceTemplateParameterBinding.type &#45;&#45;&#45;&gt; Type.">
</a>
<a xlink:title="InterfaceTemplateParameterBinding.type &#45;&#45;&#45;&gt; Type.">
</a>
</g>
<!-- 13 -->
<g id="node6" class="node"><title>13</title>
<ellipse style="fill:#99cc66;stroke:black;" cx="373" cy="-234" rx="81.7819" ry="18"/>
<text text-anchor="middle" x="373" y="-227.4" style="font-family:Times New Roman;font-size:14.00;">InterfaceTemplateParameter</text>
</g>
<!-- 12&#45;&gt;13 -->
<g id="edge18" class="edge"><title>12&#45;&gt;13</title>
<a xlink:title="InterfaceTemplateParameterBinding.parameter &#45;&#45;&#45;&gt; InterfaceTemplateParameter.">
<path style="fill:none;stroke:black;" d="M421,-288C413,-279 404,-269 396,-260"/>
<polygon style="fill:black;stroke:black;" points="398.219,-257.221 389,-252 392.951,-261.831 398.219,-257.221"/>
</a>
<a xlink:title="InterfaceTemplateParameterBinding.parameter &#45;&#45;&#45;&gt; InterfaceTemplateParameter.">
</a>
<a xlink:title="InterfaceTemplateParameterBinding.parameter &#45;&#45;&#45;&gt; InterfaceTemplateParameter.">
</a>
</g>
<!-- 13&#45;&gt;9 -->
<g id="edge16" class="edge"><title>13&#45;&gt;9</title>
<a xlink:title="InterfaceTemplateParameter.of interface &#45;&#45;&#45;&gt; Interface.template_parameters">
<path style="fill:none;stroke:black;" d="M371,-216C370,-208 369,-199 368,-190"/>
<polygon style="fill:black;stroke:black;" points="371.478,-189.602 367,-180 364.512,-190.299 371.478,-189.602"/>
</a>
<a xlink:title="InterfaceTemplateParameter.of interface &#45;&#45;&#45;&gt; Interface.template_parameters">
</a>
<a xlink:title="InterfaceTemplateParameter.of interface &#45;&#45;&#45;&gt; Interface.template_parameters">
</a>
</g>
<!-- 14 -->
<g id="node7" class="node"><title>14</title>
<ellipse style="fill:#99cc66;stroke:black;" cx="545" cy="-162" rx="78.7753" ry="18"/>
<text text-anchor="middle" x="545" y="-155.4" style="font-family:Times New Roman;font-size:14.00;">MethodTemplateParameter</text>
</g>
<!-- 14&#45;&gt;10 -->
<g id="edge20" class="edge"><title>14&#45;&gt;10</title>
<a xlink:title="MethodTemplateParameter.of method &#45;&#45;&#45;&gt; Method.template_parameters">
<path style="fill:none;stroke:black;" d="M505,-146C474,-133 429,-116 399,-104"/>
<polygon style="fill:black;stroke:black;" points="400.56,-100.863 390,-100 397.717,-107.26 400.56,-100.863"/>
</a>
<a xlink:title="MethodTemplateParameter.of method &#45;&#45;&#45;&gt; Method.template_parameters">
</a>
<a xlink:title="MethodTemplateParameter.of method &#45;&#45;&#45;&gt; Method.template_parameters">
</a>
</g>
<!-- 15 -->
<g id="node8" class="node"><title>15</title>
<ellipse style="fill:#99cc66;stroke:black;" cx="572" cy="-234" rx="99.2207" ry="18"/>
<text text-anchor="middle" x="572" y="-227.4" style="font-family:Times New Roman;font-size:14.00;">MethodTemplateParameterBinding</text>
</g>
<!-- 15&#45;&gt;9 -->
<g id="edge22" class="edge"><title>15&#45;&gt;9</title>
<a xlink:title="MethodTemplateParameterBinding.interface &#45;&#45;&#45;&gt; Interface.">
<path style="fill:none;stroke:black;" d="M526,-218C489,-205 436,-187 402,-175"/>
<polygon style="fill:black;stroke:black;" points="402.584,-171.521 392,-172 400.573,-178.226 402.584,-171.521"/>
</a>
<a xlink:title="MethodTemplateParameterBinding.interface &#45;&#45;&#45;&gt; Interface.">
</a>
<a xlink:title="MethodTemplateParameterBinding.interface &#45;&#45;&#45;&gt; Interface.">
</a>
</g>
<!-- 15&#45;&gt;14 -->
<g id="edge24" class="edge"><title>15&#45;&gt;14</title>
<a xlink:title="MethodTemplateParameterBinding.parameter &#45;&#45;&#45;&gt; MethodTemplateParameter.">
<path style="fill:none;stroke:black;" d="M565,-216C562,-208 559,-198 555,-190"/>
<polygon style="fill:black;stroke:black;" points="558.226,-188.573 552,-180 551.521,-190.584 558.226,-188.573"/>
</a>
<a xlink:title="MethodTemplateParameterBinding.parameter &#45;&#45;&#45;&gt; MethodTemplateParameter.">
</a>
<a xlink:title="MethodTemplateParameterBinding.parameter &#45;&#45;&#45;&gt; MethodTemplateParameter.">
</a>
</g>
<!-- 16 -->
<g id="node9" class="node"><title>16</title>
<ellipse style="fill:#99cc66;stroke:black;" cx="246" cy="-306" rx="72.1605" ry="18"/>
<text text-anchor="middle" x="246" y="-299.4" style="font-family:Times New Roman;font-size:14.00;">TypeTemplateParameter</text>
</g>
<!-- 16&#45;&gt;8 -->
<g id="edge26" class="edge"><title>16&#45;&gt;8</title>
<a xlink:title="TypeTemplateParameter.of type &#45;&#45;&#45;&gt; Type.template_parameters">
<path style="fill:none;stroke:black;" d="M246,-288C246,-280 246,-271 246,-262"/>
<polygon style="fill:black;stroke:black;" points="249.5,-262 246,-252 242.5,-262 249.5,-262"/>
</a>
<a xlink:title="TypeTemplateParameter.of type &#45;&#45;&#45;&gt; Type.template_parameters">
</a>
<a xlink:title="TypeTemplateParameter.of type &#45;&#45;&#45;&gt; Type.template_parameters">
</a>
</g>
<!-- 17 -->
<g id="node10" class="node"><title>17</title>
<ellipse style="fill:#cc6699;stroke:black;" cx="246" cy="-378" rx="92.1054" ry="18"/>
<text text-anchor="middle" x="246" y="-371.4" style="font-family:Times New Roman;font-size:14.00;">TypeTemplateParameterBinding</text>
</g>
<!-- 17&#45;&gt;16 -->
<g id="edge34" class="edge"><title>17&#45;&gt;16</title>
<a xlink:title="TypeTemplateParameterBinding.parameter &#45;&#45;&#45;&gt; TypeTemplateParameter.">
<path style="fill:none;stroke:black;" d="M246,-360C246,-352 246,-343 246,-334"/>
<polygon style="fill:black;stroke:black;" points="249.5,-334 246,-324 242.5,-334 249.5,-334"/>
</a>
<a xlink:title="TypeTemplateParameterBinding.parameter &#45;&#45;&#45;&gt; TypeTemplateParameter.">
</a>
<a xlink:title="TypeTemplateParameterBinding.parameter &#45;&#45;&#45;&gt; TypeTemplateParameter.">
</a>
</g>
<!-- 18 -->
<g id="node11" class="node"><title>18</title>
<ellipse style="fill:#cc6699;stroke:black;" cx="129" cy="-306" rx="27" ry="18"/>
<text text-anchor="middle" x="129" y="-299.4" style="font-family:Times New Roman;font-size:14.00;">Object</text>
</g>
<!-- 17&#45;&gt;18 -->
<g id="edge32" class="edge"><title>17&#45;&gt;18</title>
<a xlink:title="TypeTemplateParameterBinding.object &#45;&#45;&#45;&gt; Object.">
<path style="fill:none;stroke:black;" d="M218,-361C200,-350 176,-335 158,-323"/>
<polygon style="fill:black;stroke:black;" points="159.441,-319.797 149,-318 156.042,-325.916 159.441,-319.797"/>
</a>
<a xlink:title="TypeTemplateParameterBinding.object &#45;&#45;&#45;&gt; Object.">
</a>
<a xlink:title="TypeTemplateParameterBinding.object &#45;&#45;&#45;&gt; Object.">
</a>
</g>
<!-- 18&#45;&gt;8 -->
<g id="edge30" class="edge"><title>18&#45;&gt;8</title>
<a xlink:title="Object.type &#45;&#45;&#45;&gt; Type.instances">
<path style="fill:none;stroke:black;" d="M149,-294C167,-282 196,-264 217,-251"/>
<polygon style="fill:black;stroke:black;" points="218.958,-253.916 226,-246 215.559,-247.797 218.958,-253.916"/>
</a>
<a xlink:title="Object.type &#45;&#45;&#45;&gt; Type.instances">
</a>
<a xlink:title="Object.type &#45;&#45;&#45;&gt; Type.instances">
</a>
</g>
<!-- 19 -->
<g id="node12" class="node"><title>19</title>
<ellipse style="fill:#cc6699;stroke:black;" cx="93" cy="-234" rx="27" ry="18"/>
<text text-anchor="middle" x="93" y="-227.4" style="font-family:Times New Roman;font-size:14.00;">Game</text>
</g>
<!-- 18&#45;&gt;19 -->
<g id="edge28" class="edge"><title>18&#45;&gt;19</title>
<a xlink:title="Object.game &#45;&#45;&#45;&gt; Game.">
<path style="fill:none;stroke:black;" d="M120,-289C116,-280 111,-270 106,-260"/>
<polygon style="fill:black;stroke:black;" points="109.26,-258.717 102,-251 102.863,-261.56 109.26,-258.717"/>
</a>
<a xlink:title="Object.game &#45;&#45;&#45;&gt; Game.">
</a>
<a xlink:title="Object.game &#45;&#45;&#45;&gt; Game.">
</a>
</g>
<!-- 20 -->
<g id="node13" class="node"><title>20</title>
<ellipse style="fill:#cc6699;stroke:black;" cx="106" cy="-378" rx="30.0669" ry="18"/>
<text text-anchor="middle" x="106" y="-371.4" style="font-family:Times New Roman;font-size:14.00;">Binding</text>
</g>
<!-- 20&#45;&gt;11 -->
<g id="edge38" class="edge"><title>20&#45;&gt;11</title>
<a xlink:title="Binding.parameter &#45;&#45;&#45;&gt; Variable.bindings">
<path style="fill:none;stroke:black;" d="M81,-368C61,-359 36,-345 21,-324 -2,-290 2,-274 2,-234 2,-234 2,-234 2,-162 2,-102 187,-48 269,-27"/>
<polygon style="fill:black;stroke:black;" points="269.881,-30.3933 279,-25 268.508,-23.5292 269.881,-30.3933"/>
</a>
<a xlink:title="Binding.parameter &#45;&#45;&#45;&gt; Variable.bindings">
</a>
<a xlink:title="Binding.parameter &#45;&#45;&#45;&gt; Variable.bindings">
</a>
</g>
<!-- 20&#45;&gt;18 -->
<g id="edge36" class="edge"><title>20&#45;&gt;18</title>
<a xlink:title="Binding.instance &#45;&#45;&#45;&gt; Object.parameter_bindings">
<path style="fill:none;stroke:black;" d="M106,-360C108,-352 111,-342 114,-332"/>
<polygon style="fill:black;stroke:black;" points="117.137,-333.56 118,-323 110.74,-330.717 117.137,-333.56"/>
</a>
<a xlink:title="Binding.instance &#45;&#45;&#45;&gt; Object.parameter_bindings">
</a>
<a xlink:title="Binding.instance &#45;&#45;&#45;&gt; Object.parameter_bindings">
</a>
</g>
<!-- 20&#45;&gt;18 -->
<g id="edge40" class="edge"><title>20&#45;&gt;18</title>
<a xlink:title="Binding.object argument &#45;&#45;&#45;&gt; Object.bound_to">
<path style="fill:none;stroke:black;" d="M117,-361C121,-353 124,-343 126,-334"/>
<polygon style="fill:black;stroke:black;" points="129.479,-334.584 129,-324 122.774,-332.573 129.479,-334.584"/>
</a>
<a xlink:title="Binding.object argument &#45;&#45;&#45;&gt; Object.bound_to">
</a>
<a xlink:title="Binding.object argument &#45;&#45;&#45;&gt; Object.bound_to">
</a>
</g>
<!-- 21 -->
<g id="node14" class="node"><title>21</title>
<ellipse style="fill:#cc9966;stroke:black;" cx="57" cy="-306" rx="27" ry="18"/>
<text text-anchor="middle" x="57" y="-299.4" style="font-family:Times New Roman;font-size:14.00;">Match</text>
</g>
<!-- 21&#45;&gt;19 -->
<g id="edge42" class="edge"><title>21&#45;&gt;19</title>
<a xlink:title="Match.game &#45;&#45;&#45;&gt; Game.">
<path style="fill:none;stroke:black;" d="M66,-289C70,-280 75,-270 80,-260"/>
<polygon style="fill:black;stroke:black;" points="83.1369,-261.56 84,-251 76.7402,-258.717 83.1369,-261.56"/>
</a>
<a xlink:title="Match.game &#45;&#45;&#45;&gt; Game.">
</a>
<a xlink:title="Match.game &#45;&#45;&#45;&gt; Game.">
</a>
</g>
</g>
</svg>
