<?xml version="1.0" encoding="UTF-8" standalone="no"?>
<!DOCTYPE svg PUBLIC "-//W3C//DTD SVG 1.0//EN"
 "http://www.w3.org/TR/2001/REC-SVG-20010904/DTD/svg10.dtd" [
 <!ATTLIST svg xmlns:xlink CDATA #FIXED "http://www.w3.org/1999/xlink">
]>
<!-- Generated by Graphviz version 2.20.3 (Fri Feb 13 02:52:03 UTC 2009)
     For user: (kevin) Kevin Tonon -->
<!-- Title: Models Pages: 1 -->
<svg width="344pt" height="404pt"
 viewBox="0.00 0.00 344.00 404.00" xmlns="http://www.w3.org/2000/svg" xmlns:xlink="http://www.w3.org/1999/xlink">
<g id="graph0" class="graph" transform="scale(1 1) rotate(0) translate(4 400)">
<title>Models</title>
<polygon style="fill:white;stroke:white;" points="-4,4 -4,-400 340,-400 340,4 -4,4"/>
<!-- 0 -->
<g id="node1" class="node"><title>0</title>
<ellipse style="fill:#99cc66;stroke:black;" cx="55" cy="-234" rx="27" ry="18"/>
<text text-anchor="middle" x="55" y="-227.4" style="font-family:Times New Roman;font-size:14.00;">Type</text>
</g>
<!-- 1 -->
<g id="node2" class="node"><title>1</title>
<ellipse style="fill:#99cc66;stroke:black;" cx="133" cy="-162" rx="31.8709" ry="18"/>
<text text-anchor="middle" x="133" y="-155.4" style="font-family:Times New Roman;font-size:14.00;">Interface</text>
</g>
<!-- 0&#45;&gt;1 -->
<g id="edge10" class="edge"><title>0&#45;&gt;1</title>
<a xlink:title="Type.implements &lt;&#45;&#45;&gt; Interface.implemented_by">
<path style="fill:none;stroke:black;" d="M79,-212C88,-203 99,-193 109,-184"/>
<polygon style="fill:black;stroke:black;" points="76.221,-209.781 71,-219 80.8306,-215.049 76.221,-209.781"/>
<polygon style="fill:black;stroke:black;" points="111.404,-186.546 116,-177 106.454,-181.596 111.404,-186.546"/>
</a>
<a xlink:title="Type.implements &lt;&#45;&#45;&gt; Interface.implemented_by">
</a>
<a xlink:title="Type.implements &lt;&#45;&#45;&gt; Interface.implemented_by">
</a>
</g>
<!-- 3 -->
<g id="node4" class="node"><title>3</title>
<ellipse style="fill:#99cc66;stroke:black;" cx="103" cy="-18" rx="30.7732" ry="18"/>
<text text-anchor="middle" x="103" y="-11.4" style="font-family:Times New Roman;font-size:14.00;">Variable</text>
</g>
<!-- 0&#45;&gt;3 -->
<g id="edge12" class="edge"><title>0&#45;&gt;3</title>
<a xlink:title="Type.parameters &lt;&#45;&#45;&gt; Variable.parameter_of">
<path style="fill:none;stroke:black;" d="M52,-206C50,-172 49,-117 65,-72 69,-61 75,-51 82,-42"/>
<polygon style="fill:black;stroke:black;" points="48.5222,-206.398 53,-216 55.4875,-205.701 48.5222,-206.398"/>
<polygon style="fill:black;stroke:black;" points="84.8,-44.1 88,-34 79.2,-39.9 84.8,-44.1"/>
</a>
<a xlink:title="Type.parameters &lt;&#45;&#45;&gt; Variable.parameter_of">
</a>
<a xlink:title="Type.parameters &lt;&#45;&#45;&gt; Variable.parameter_of">
</a>
</g>
<!-- 2 -->
<g id="node3" class="node"><title>2</title>
<ellipse style="fill:#99cc66;stroke:black;" cx="103" cy="-90" rx="28.9661" ry="18"/>
<text text-anchor="middle" x="103" y="-83.4" style="font-family:Times New Roman;font-size:14.00;">Method</text>
</g>
<!-- 1&#45;&gt;2 -->
<g id="edge8" class="edge"><title>1&#45;&gt;2</title>
<a xlink:title="Interface.methods &lt;&#45;&#45;&gt; Method.used_in">
<path style="fill:none;stroke:black;" d="M122,-135C119,-129 117,-123 114,-117"/>
<polygon style="fill:black;stroke:black;" points="118.74,-136.283 126,-144 125.137,-133.44 118.74,-136.283"/>
<polygon style="fill:black;stroke:black;" points="117.26,-115.717 110,-108 110.863,-118.56 117.26,-115.717"/>
</a>
<a xlink:title="Interface.methods &lt;&#45;&#45;&gt; Method.used_in">
</a>
<a xlink:title="Interface.methods &lt;&#45;&#45;&gt; Method.used_in">
</a>
</g>
<!-- 2&#45;&gt;3 -->
<g id="edge4" class="edge"><title>2&#45;&gt;3</title>
<a xlink:title="Method.returned &#45;&#45;&#45;&gt; Variable.returned_from_method">
<path style="fill:none;stroke:black;" d="M97,-72C96,-64 96,-55 96,-46"/>
<polygon style="fill:black;stroke:black;" points="99.4875,-46.2987 97,-36 92.5222,-45.6021 99.4875,-46.2987"/>
</a>
<a xlink:title="Method.returned &#45;&#45;&#45;&gt; Variable.returned_from_method">
</a>
<a xlink:title="Method.returned &#45;&#45;&#45;&gt; Variable.returned_from_method">
</a>
</g>
<!-- 2&#45;&gt;3 -->
<g id="edge6" class="edge"><title>2&#45;&gt;3</title>
<a xlink:title="Method.parameters &lt;&#45;&#45;&gt; Variable.parameter_of_method">
<path style="fill:none;stroke:black;" d="M110,-62C110,-57 110,-51 110,-46"/>
<polygon style="fill:black;stroke:black;" points="106.512,-61.7013 109,-72 113.478,-62.3979 106.512,-61.7013"/>
<polygon style="fill:black;stroke:black;" points="113.478,-45.6021 109,-36 106.512,-46.2987 113.478,-45.6021"/>
</a>
<a xlink:title="Method.parameters &lt;&#45;&#45;&gt; Variable.parameter_of_method">
</a>
<a xlink:title="Method.parameters &lt;&#45;&#45;&gt; Variable.parameter_of_method">
</a>
</g>
<!-- 3&#45;&gt;1 -->
<g id="edge2" class="edge"><title>3&#45;&gt;1</title>
<a xlink:title="Variable.interface &#45;&#45;&#45;&gt; Interface.">
<path style="fill:none;stroke:black;" d="M118,-34C127,-44 136,-58 141,-72 148,-92 145,-116 141,-134"/>
<polygon style="fill:black;stroke:black;" points="137.529,-133.508 139,-144 144.393,-134.881 137.529,-133.508"/>
</a>
<a xlink:title="Variable.interface &#45;&#45;&#45;&gt; Interface.">
</a>
<a xlink:title="Variable.interface &#45;&#45;&#45;&gt; Interface.">
</a>
</g>
<!-- 4 -->
<g id="node5" class="node"><title>4</title>
<ellipse style="fill:#99cc66;stroke:black;" cx="254" cy="-234" rx="81.7819" ry="18"/>
<text text-anchor="middle" x="254" y="-227.4" style="font-family:Times New Roman;font-size:14.00;">InterfaceTemplateParameter</text>
</g>
<!-- 4&#45;&gt;1 -->
<g id="edge14" class="edge"><title>4&#45;&gt;1</title>
<a xlink:title="InterfaceTemplateParameter.of interface &#45;&#45;&#45;&gt; Interface.template_parameters">
<path style="fill:none;stroke:black;" d="M225,-217C207,-206 183,-192 164,-180"/>
<polygon style="fill:black;stroke:black;" points="165.441,-176.797 155,-175 162.042,-182.916 165.441,-176.797"/>
</a>
<a xlink:title="InterfaceTemplateParameter.of interface &#45;&#45;&#45;&gt; Interface.template_parameters">
</a>
<a xlink:title="InterfaceTemplateParameter.of interface &#45;&#45;&#45;&gt; Interface.template_parameters">
</a>
</g>
<!-- 5 -->
<g id="node6" class="node"><title>5</title>
<ellipse style="fill:#cc6699;stroke:black;" cx="55" cy="-306" rx="27" ry="18"/>
<text text-anchor="middle" x="55" y="-299.4" style="font-family:Times New Roman;font-size:14.00;">Object</text>
</g>
<!-- 5&#45;&gt;0 -->
<g id="edge18" class="edge"><title>5&#45;&gt;0</title>
<a xlink:title="Object.type &#45;&#45;&#45;&gt; Type.instances">
<path style="fill:none;stroke:black;" d="M55,-288C55,-280 55,-271 55,-262"/>
<polygon style="fill:black;stroke:black;" points="58.5001,-262 55,-252 51.5001,-262 58.5001,-262"/>
</a>
<a xlink:title="Object.type &#45;&#45;&#45;&gt; Type.instances">
</a>
<a xlink:title="Object.type &#45;&#45;&#45;&gt; Type.instances">
</a>
</g>
<!-- 6 -->
<g id="node7" class="node"><title>6</title>
<ellipse style="fill:#cc6699;stroke:black;" cx="127" cy="-234" rx="27" ry="18"/>
<text text-anchor="middle" x="127" y="-227.4" style="font-family:Times New Roman;font-size:14.00;">Game</text>
</g>
<!-- 5&#45;&gt;6 -->
<g id="edge16" class="edge"><title>5&#45;&gt;6</title>
<a xlink:title="Object.game &#45;&#45;&#45;&gt; Game.">
<path style="fill:none;stroke:black;" d="M70,-291C80,-281 93,-268 105,-256"/>
<polygon style="fill:black;stroke:black;" points="107.404,-258.546 112,-249 102.454,-253.596 107.404,-258.546"/>
</a>
<a xlink:title="Object.game &#45;&#45;&#45;&gt; Game.">
</a>
<a xlink:title="Object.game &#45;&#45;&#45;&gt; Game.">
</a>
</g>
<!-- 7 -->
<g id="node8" class="node"><title>7</title>
<ellipse style="fill:#cc6699;stroke:black;" cx="55" cy="-378" rx="30.0669" ry="18"/>
<text text-anchor="middle" x="55" y="-371.4" style="font-family:Times New Roman;font-size:14.00;">Binding</text>
</g>
<!-- 7&#45;&gt;3 -->
<g id="edge22" class="edge"><title>7&#45;&gt;3</title>
<a xlink:title="Binding.parameter &#45;&#45;&#45;&gt; Variable.bindings">
<path style="fill:none;stroke:black;" d="M42,-362C35,-351 25,-337 19,-324 4,-286 0,-274 0,-234 0,-234 0,-234 0,-162 1,-110 45,-64 75,-39"/>
<polygon style="fill:black;stroke:black;" points="77.779,-41.2191 83,-32 73.1694,-35.9511 77.779,-41.2191"/>
</a>
<a xlink:title="Binding.parameter &#45;&#45;&#45;&gt; Variable.bindings">
</a>
<a xlink:title="Binding.parameter &#45;&#45;&#45;&gt; Variable.bindings">
</a>
</g>
<!-- 7&#45;&gt;5 -->
<g id="edge24" class="edge"><title>7&#45;&gt;5</title>
<a xlink:title="Binding.object argument &#45;&#45;&#45;&gt; Object.bound_to">
<path style="fill:none;stroke:black;" d="M49,-360C48,-352 48,-343 48,-334"/>
<polygon style="fill:black;stroke:black;" points="51.4875,-334.299 49,-324 44.5222,-333.602 51.4875,-334.299"/>
</a>
<a xlink:title="Binding.object argument &#45;&#45;&#45;&gt; Object.bound_to">
</a>
<a xlink:title="Binding.object argument &#45;&#45;&#45;&gt; Object.bound_to">
</a>
</g>
<!-- 7&#45;&gt;5 -->
<g id="edge20" class="edge"><title>7&#45;&gt;5</title>
<a xlink:title="Binding.instance &#45;&#45;&#45;&gt; Object.parameter_bindings">
<path style="fill:none;stroke:black;" d="M61,-360C62,-352 62,-343 62,-334"/>
<polygon style="fill:black;stroke:black;" points="65.4778,-333.602 61,-324 58.5125,-334.299 65.4778,-333.602"/>
</a>
<a xlink:title="Binding.instance &#45;&#45;&#45;&gt; Object.parameter_bindings">
</a>
<a xlink:title="Binding.instance &#45;&#45;&#45;&gt; Object.parameter_bindings">
</a>
</g>
<!-- 8 -->
<g id="node9" class="node"><title>8</title>
<ellipse style="fill:#cc9966;stroke:black;" cx="127" cy="-306" rx="27" ry="18"/>
<text text-anchor="middle" x="127" y="-299.4" style="font-family:Times New Roman;font-size:14.00;">Match</text>
</g>
<!-- 8&#45;&gt;6 -->
<g id="edge26" class="edge"><title>8&#45;&gt;6</title>
<a xlink:title="Match.game &#45;&#45;&#45;&gt; Game.">
<path style="fill:none;stroke:black;" d="M127,-288C127,-280 127,-271 127,-262"/>
<polygon style="fill:black;stroke:black;" points="130.5,-262 127,-252 123.5,-262 130.5,-262"/>
</a>
<a xlink:title="Match.game &#45;&#45;&#45;&gt; Game.">
</a>
<a xlink:title="Match.game &#45;&#45;&#45;&gt; Game.">
</a>
</g>
</g>
</svg>
