<?xml version="1.0" encoding="UTF-8" standalone="no"?>
<!DOCTYPE svg PUBLIC "-//W3C//DTD SVG 1.0//EN"
 "http://www.w3.org/TR/2001/REC-SVG-20010904/DTD/svg10.dtd" [
 <!ATTLIST svg xmlns:xlink CDATA #FIXED "http://www.w3.org/1999/xlink">
]>
<!-- Generated by Graphviz version 2.20.3 (Fri Feb 13 02:52:03 UTC 2009)
     For user: (kevin) Kevin Tonon -->
<!-- Title: Models Pages: 1 -->
<svg width="794pt" height="260pt"
 viewBox="0.00 0.00 794.00 260.00" xmlns="http://www.w3.org/2000/svg" xmlns:xlink="http://www.w3.org/1999/xlink">
<g id="graph0" class="graph" transform="scale(1 1) rotate(0) translate(4 256)">
<title>Models</title>
<polygon style="fill:white;stroke:white;" points="-4,4 -4,-256 790,-256 790,4 -4,4"/>
<!-- 0 -->
<g id="node1" class="node"><title>0</title>
<ellipse style="fill:#99cc66;stroke:black;" cx="344" cy="-90" rx="27" ry="18"/>
<text text-anchor="middle" x="344" y="-83.4" style="font-family:Times New Roman;font-size:14.00;">Type</text>
</g>
<!-- 1 -->
<g id="node2" class="node"><title>1</title>
<ellipse style="fill:#99cc66;stroke:black;" cx="344" cy="-18" rx="31.8709" ry="18"/>
<text text-anchor="middle" x="344" y="-11.4" style="font-family:Times New Roman;font-size:14.00;">Interface</text>
</g>
<!-- 0&#45;&gt;1 -->
<g id="edge2" class="edge"><title>0&#45;&gt;1</title>
<a xlink:title="Type.implements &lt;&#45;&#45;&gt; Interface.implemented_by">
<path style="fill:none;stroke:black;" d="M344,-62C344,-57 344,-51 344,-46"/>
<polygon style="fill:black;stroke:black;" points="340.5,-62 344,-72 347.5,-62 340.5,-62"/>
<polygon style="fill:black;stroke:black;" points="347.5,-46 344,-36 340.5,-46 347.5,-46"/>
</a>
<a xlink:title="Type.implements &lt;&#45;&#45;&gt; Interface.implemented_by">
</a>
<a xlink:title="Type.implements &lt;&#45;&#45;&gt; Interface.implemented_by">
</a>
</g>
<!-- 2 -->
<g id="node3" class="node"><title>2</title>
<ellipse style="fill:#99cc66;stroke:black;" cx="628" cy="-90" rx="28.9661" ry="18"/>
<text text-anchor="middle" x="628" y="-83.4" style="font-family:Times New Roman;font-size:14.00;">Method</text>
</g>
<!-- 2&#45;&gt;1 -->
<g id="edge4" class="edge"><title>2&#45;&gt;1</title>
<a xlink:title="Method.interface &#45;&#45;&#45;&gt; Interface.methods">
<path style="fill:none;stroke:black;" d="M601,-83C550,-70 442,-42 383,-27"/>
<polygon style="fill:black;stroke:black;" points="383.492,-23.5292 373,-25 382.119,-30.3933 383.492,-23.5292"/>
</a>
<a xlink:title="Method.interface &#45;&#45;&#45;&gt; Interface.methods">
</a>
<a xlink:title="Method.interface &#45;&#45;&#45;&gt; Interface.methods">
</a>
</g>
<!-- 3 -->
<g id="node4" class="node"><title>3</title>
<ellipse style="fill:#99cc66;stroke:black;" cx="268" cy="-162" rx="48.107" ry="18"/>
<text text-anchor="middle" x="268" y="-155.4" style="font-family:Times New Roman;font-size:14.00;">TypeParameter</text>
</g>
<!-- 3&#45;&gt;0 -->
<g id="edge6" class="edge"><title>3&#45;&gt;0</title>
<a xlink:title="TypeParameter.of type &#45;&#45;&#45;&gt; Type.parameters">
<path style="fill:none;stroke:black;" d="M286,-145C297,-135 310,-123 321,-112"/>
<polygon style="fill:black;stroke:black;" points="323.404,-114.546 328,-105 318.454,-109.596 323.404,-114.546"/>
</a>
<a xlink:title="TypeParameter.of type &#45;&#45;&#45;&gt; Type.parameters">
</a>
<a xlink:title="TypeParameter.of type &#45;&#45;&#45;&gt; Type.parameters">
</a>
</g>
<!-- 3&#45;&gt;1 -->
<g id="edge8" class="edge"><title>3&#45;&gt;1</title>
<a xlink:title="TypeParameter.interfaces &lt;&#45;&#45;&gt; Interface.used_in_type_parameter">
<path style="fill:none;stroke:black;" d="M279,-134C286,-116 296,-92 308,-72 313,-62 319,-52 325,-43"/>
<polygon style="fill:black;stroke:black;" points="275.464,-133.415 275,-144 281.964,-136.015 275.464,-133.415"/>
<polygon style="fill:black;stroke:black;" points="327.8,-45.1 331,-35 322.2,-40.9 327.8,-45.1"/>
</a>
<a xlink:title="TypeParameter.interfaces &lt;&#45;&#45;&gt; Interface.used_in_type_parameter">
</a>
<a xlink:title="TypeParameter.interfaces &lt;&#45;&#45;&gt; Interface.used_in_type_parameter">
</a>
</g>
<!-- 4 -->
<g id="node5" class="node"><title>4</title>
<ellipse style="fill:#99cc66;stroke:black;" cx="130" cy="-90" rx="81.7819" ry="18"/>
<text text-anchor="middle" x="130" y="-83.4" style="font-family:Times New Roman;font-size:14.00;">InterfaceTemplateParameter</text>
</g>
<!-- 4&#45;&gt;1 -->
<g id="edge10" class="edge"><title>4&#45;&gt;1</title>
<a xlink:title="InterfaceTemplateParameter.of interface &#45;&#45;&#45;&gt; Interface.template_parameters">
<path style="fill:none;stroke:black;" d="M175,-75C214,-62 270,-43 307,-30"/>
<polygon style="fill:black;stroke:black;" points="308.427,-33.2259 317,-27 306.416,-26.5212 308.427,-33.2259"/>
</a>
<a xlink:title="InterfaceTemplateParameter.of interface &#45;&#45;&#45;&gt; Interface.template_parameters">
</a>
<a xlink:title="InterfaceTemplateParameter.of interface &#45;&#45;&#45;&gt; Interface.template_parameters">
</a>
</g>
<!-- 5 -->
<g id="node6" class="node"><title>5</title>
<ellipse style="fill:#99cc66;stroke:black;" cx="101" cy="-162" rx="101.125" ry="18"/>
<text text-anchor="middle" x="101" y="-155.4" style="font-family:Times New Roman;font-size:14.00;">InterfaceTemplateParameterBinding</text>
</g>
<!-- 5&#45;&gt;0 -->
<g id="edge12" class="edge"><title>5&#45;&gt;0</title>
<a xlink:title="InterfaceTemplateParameterBinding.type &#45;&#45;&#45;&gt; Type.">
<path style="fill:none;stroke:black;" d="M153,-147C201,-132 268,-112 309,-100"/>
<polygon style="fill:black;stroke:black;" points="310.427,-103.226 319,-97 308.416,-96.5212 310.427,-103.226"/>
</a>
<a xlink:title="InterfaceTemplateParameterBinding.type &#45;&#45;&#45;&gt; Type.">
</a>
<a xlink:title="InterfaceTemplateParameterBinding.type &#45;&#45;&#45;&gt; Type.">
</a>
</g>
<!-- 5&#45;&gt;4 -->
<g id="edge14" class="edge"><title>5&#45;&gt;4</title>
<a xlink:title="InterfaceTemplateParameterBinding.parameter &#45;&#45;&#45;&gt; InterfaceTemplateParameter.">
<path style="fill:none;stroke:black;" d="M108,-144C112,-136 115,-126 119,-117"/>
<polygon style="fill:black;stroke:black;" points="122.137,-118.56 123,-108 115.74,-115.717 122.137,-118.56"/>
</a>
<a xlink:title="InterfaceTemplateParameterBinding.parameter &#45;&#45;&#45;&gt; InterfaceTemplateParameter.">
</a>
<a xlink:title="InterfaceTemplateParameterBinding.parameter &#45;&#45;&#45;&gt; InterfaceTemplateParameter.">
</a>
</g>
<!-- 6 -->
<g id="node7" class="node"><title>6</title>
<ellipse style="fill:#99cc66;stroke:black;" cx="732" cy="-162" rx="54.2197" ry="18"/>
<text text-anchor="middle" x="732" y="-155.4" style="font-family:Times New Roman;font-size:14.00;">MethodParameter</text>
</g>
<!-- 6&#45;&gt;1 -->
<g id="edge18" class="edge"><title>6&#45;&gt;1</title>
<a xlink:title="MethodParameter.interfaces &lt;&#45;&#45;&gt; Interface.used_in_method_parameter">
<path style="fill:none;stroke:black;" d="M719,-135C709,-114 690,-87 666,-72 619,-42 462,-27 386,-21"/>
<polygon style="fill:black;stroke:black;" points="716.084,-136.958 724,-144 722.203,-133.559 716.084,-136.958"/>
<polygon style="fill:black;stroke:black;" points="386.299,-17.5125 376,-20 385.602,-24.4778 386.299,-17.5125"/>
</a>
<a xlink:title="MethodParameter.interfaces &lt;&#45;&#45;&gt; Interface.used_in_method_parameter">
</a>
<a xlink:title="MethodParameter.interfaces &lt;&#45;&#45;&gt; Interface.used_in_method_parameter">
</a>
</g>
<!-- 6&#45;&gt;2 -->
<g id="edge16" class="edge"><title>6&#45;&gt;2</title>
<a xlink:title="MethodParameter.of method &#45;&#45;&#45;&gt; Method.parameters">
<path style="fill:none;stroke:black;" d="M708,-146C693,-135 673,-121 656,-110"/>
<polygon style="fill:black;stroke:black;" points="658.1,-107.2 648,-104 653.9,-112.8 658.1,-107.2"/>
</a>
<a xlink:title="MethodParameter.of method &#45;&#45;&#45;&gt; Method.parameters">
</a>
<a xlink:title="MethodParameter.of method &#45;&#45;&#45;&gt; Method.parameters">
</a>
</g>
<!-- 7 -->
<g id="node8" class="node"><title>7</title>
<ellipse style="fill:#99cc66;stroke:black;" cx="516" cy="-162" rx="72.1605" ry="18"/>
<text text-anchor="middle" x="516" y="-155.4" style="font-family:Times New Roman;font-size:14.00;">TypeTemplateParameter</text>
</g>
<!-- 7&#45;&gt;0 -->
<g id="edge20" class="edge"><title>7&#45;&gt;0</title>
<a xlink:title="TypeTemplateParameter.of type &#45;&#45;&#45;&gt; Type.template_parameters">
<path style="fill:none;stroke:black;" d="M479,-146C448,-133 406,-115 376,-104"/>
<polygon style="fill:black;stroke:black;" points="377.56,-100.863 367,-100 374.717,-107.26 377.56,-100.863"/>
</a>
<a xlink:title="TypeTemplateParameter.of type &#45;&#45;&#45;&gt; Type.template_parameters">
</a>
<a xlink:title="TypeTemplateParameter.of type &#45;&#45;&#45;&gt; Type.template_parameters">
</a>
</g>
<!-- 8 -->
<g id="node9" class="node"><title>8</title>
<ellipse style="fill:#cc6699;stroke:black;" cx="519" cy="-234" rx="92.1054" ry="18"/>
<text text-anchor="middle" x="519" y="-227.4" style="font-family:Times New Roman;font-size:14.00;">TypeTemplateParameterBinding</text>
</g>
<!-- 8&#45;&gt;7 -->
<g id="edge28" class="edge"><title>8&#45;&gt;7</title>
<a xlink:title="TypeTemplateParameterBinding.parameter &#45;&#45;&#45;&gt; TypeTemplateParameter.">
<path style="fill:none;stroke:black;" d="M518,-216C517,-208 517,-199 517,-190"/>
<polygon style="fill:black;stroke:black;" points="520.5,-190 517,-180 513.5,-190 520.5,-190"/>
</a>
<a xlink:title="TypeTemplateParameterBinding.parameter &#45;&#45;&#45;&gt; TypeTemplateParameter.">
</a>
<a xlink:title="TypeTemplateParameterBinding.parameter &#45;&#45;&#45;&gt; TypeTemplateParameter.">
</a>
</g>
<!-- 9 -->
<g id="node10" class="node"><title>9</title>
<ellipse style="fill:#cc6699;stroke:black;" cx="399" cy="-162" rx="27" ry="18"/>
<text text-anchor="middle" x="399" y="-155.4" style="font-family:Times New Roman;font-size:14.00;">Object</text>
</g>
<!-- 8&#45;&gt;9 -->
<g id="edge26" class="edge"><title>8&#45;&gt;9</title>
<a xlink:title="TypeTemplateParameterBinding.object &#45;&#45;&#45;&gt; Object.">
<path style="fill:none;stroke:black;" d="M490,-217C471,-205 447,-191 428,-179"/>
<polygon style="fill:black;stroke:black;" points="429.441,-175.797 419,-174 426.042,-181.916 429.441,-175.797"/>
</a>
<a xlink:title="TypeTemplateParameterBinding.object &#45;&#45;&#45;&gt; Object.">
</a>
<a xlink:title="TypeTemplateParameterBinding.object &#45;&#45;&#45;&gt; Object.">
</a>
</g>
<!-- 9&#45;&gt;0 -->
<g id="edge24" class="edge"><title>9&#45;&gt;0</title>
<a xlink:title="Object.type &#45;&#45;&#45;&gt; Type.instances">
<path style="fill:none;stroke:black;" d="M387,-146C380,-137 370,-125 362,-114"/>
<polygon style="fill:black;stroke:black;" points="364.8,-111.9 356,-106 359.2,-116.1 364.8,-111.9"/>
</a>
<a xlink:title="Object.type &#45;&#45;&#45;&gt; Type.instances">
</a>
<a xlink:title="Object.type &#45;&#45;&#45;&gt; Type.instances">
</a>
</g>
<!-- 10 -->
<g id="node11" class="node"><title>10</title>
<ellipse style="fill:#cc6699;stroke:black;" cx="508" cy="-90" rx="27" ry="18"/>
<text text-anchor="middle" x="508" y="-83.4" style="font-family:Times New Roman;font-size:14.00;">Game</text>
</g>
<!-- 9&#45;&gt;10 -->
<g id="edge22" class="edge"><title>9&#45;&gt;10</title>
<a xlink:title="Object.game &#45;&#45;&#45;&gt; Game.">
<path style="fill:none;stroke:black;" d="M418,-149C435,-138 461,-121 481,-109"/>
<polygon style="fill:black;stroke:black;" points="483.1,-111.8 489,-103 478.9,-106.2 483.1,-111.8"/>
</a>
<a xlink:title="Object.game &#45;&#45;&#45;&gt; Game.">
</a>
<a xlink:title="Object.game &#45;&#45;&#45;&gt; Game.">
</a>
</g>
<!-- 11 -->
<g id="node12" class="node"><title>11</title>
<ellipse style="fill:#cc6699;stroke:black;" cx="341" cy="-234" rx="68.0521" ry="18"/>
<text text-anchor="middle" x="341" y="-227.4" style="font-family:Times New Roman;font-size:14.00;">TypeParameterBinding</text>
</g>
<!-- 11&#45;&gt;0 -->
<g id="edge36" class="edge"><title>11&#45;&gt;0</title>
<a xlink:title="TypeParameterBinding.type argument &#45;&#45;&#45;&gt; Type.bound_to">
<path style="fill:none;stroke:black;" d="M341,-216C342,-191 343,-147 344,-118"/>
<polygon style="fill:black;stroke:black;" points="347.5,-118 344,-108 340.5,-118 347.5,-118"/>
</a>
<a xlink:title="TypeParameterBinding.type argument &#45;&#45;&#45;&gt; Type.bound_to">
</a>
<a xlink:title="TypeParameterBinding.type argument &#45;&#45;&#45;&gt; Type.bound_to">
</a>
</g>
<!-- 11&#45;&gt;3 -->
<g id="edge32" class="edge"><title>11&#45;&gt;3</title>
<a xlink:title="TypeParameterBinding.parameter &#45;&#45;&#45;&gt; TypeParameter.bindings">
<path style="fill:none;stroke:black;" d="M323,-217C314,-207 303,-197 293,-187"/>
<polygon style="fill:black;stroke:black;" points="295.219,-184.221 286,-179 289.951,-188.831 295.219,-184.221"/>
</a>
<a xlink:title="TypeParameterBinding.parameter &#45;&#45;&#45;&gt; TypeParameter.bindings">
</a>
<a xlink:title="TypeParameterBinding.parameter &#45;&#45;&#45;&gt; TypeParameter.bindings">
</a>
</g>
<!-- 11&#45;&gt;9 -->
<g id="edge30" class="edge"><title>11&#45;&gt;9</title>
<a xlink:title="TypeParameterBinding.instance &#45;&#45;&#45;&gt; Object.parameter_bindings">
<path style="fill:none;stroke:black;" d="M350,-216C357,-206 367,-194 376,-184"/>
<polygon style="fill:black;stroke:black;" points="378.8,-186.1 382,-176 373.2,-181.9 378.8,-186.1"/>
</a>
<a xlink:title="TypeParameterBinding.instance &#45;&#45;&#45;&gt; Object.parameter_bindings">
</a>
<a xlink:title="TypeParameterBinding.instance &#45;&#45;&#45;&gt; Object.parameter_bindings">
</a>
</g>
<!-- 11&#45;&gt;9 -->
<g id="edge34" class="edge"><title>11&#45;&gt;9</title>
<a xlink:title="TypeParameterBinding.object argument &#45;&#45;&#45;&gt; Object.bound_to">
<path style="fill:none;stroke:black;" d="M361,-217C369,-208 378,-197 385,-187"/>
<polygon style="fill:black;stroke:black;" points="387.8,-189.1 391,-179 382.2,-184.9 387.8,-189.1"/>
</a>
<a xlink:title="TypeParameterBinding.object argument &#45;&#45;&#45;&gt; Object.bound_to">
</a>
<a xlink:title="TypeParameterBinding.object argument &#45;&#45;&#45;&gt; Object.bound_to">
</a>
</g>
<!-- 12 -->
<g id="node13" class="node"><title>12</title>
<ellipse style="fill:#cc9966;stroke:black;" cx="633" cy="-162" rx="27" ry="18"/>
<text text-anchor="middle" x="633" y="-155.4" style="font-family:Times New Roman;font-size:14.00;">Match</text>
</g>
<!-- 12&#45;&gt;10 -->
<g id="edge38" class="edge"><title>12&#45;&gt;10</title>
<a xlink:title="Match.game &#45;&#45;&#45;&gt; Game.">
<path style="fill:none;stroke:black;" d="M612,-150C592,-139 561,-120 538,-107"/>
<polygon style="fill:black;stroke:black;" points="539.441,-103.797 529,-102 536.042,-109.916 539.441,-103.797"/>
</a>
<a xlink:title="Match.game &#45;&#45;&#45;&gt; Game.">
</a>
<a xlink:title="Match.game &#45;&#45;&#45;&gt; Game.">
</a>
</g>
</g>
</svg>
