<?xml version="1.0" encoding="UTF-8" standalone="no"?>
<!DOCTYPE svg PUBLIC "-//W3C//DTD SVG 1.0//EN"
 "http://www.w3.org/TR/2001/REC-SVG-20010904/DTD/svg10.dtd" [
 <!ATTLIST svg xmlns:xlink CDATA #FIXED "http://www.w3.org/1999/xlink">
]>
<!-- Generated by Graphviz version 2.20.3 (Fri Feb 13 02:52:03 UTC 2009)
     For user: (kevin) Kevin Tonon -->
<!-- Title: Models Pages: 1 -->
<svg width="742pt" height="404pt"
 viewBox="0.00 0.00 742.00 404.00" xmlns="http://www.w3.org/2000/svg" xmlns:xlink="http://www.w3.org/1999/xlink">
<g id="graph0" class="graph" transform="scale(1 1) rotate(0) translate(4 400)">
<title>Models</title>
<polygon style="fill:white;stroke:white;" points="-4,4 -4,-400 738,-400 738,4 -4,4"/>
<!-- 34 -->
<g id="node1" class="node"><title>34</title>
<ellipse style="fill:#99cc66;stroke:black;" cx="309" cy="-234" rx="27" ry="18"/>
<text text-anchor="middle" x="309" y="-227.4" style="font-family:Times New Roman;font-size:14.00;">Type</text>
</g>
<!-- 35 -->
<g id="node2" class="node"><title>35</title>
<ellipse style="fill:#99cc66;stroke:black;" cx="436" cy="-162" rx="31.8709" ry="18"/>
<text text-anchor="middle" x="436" y="-155.4" style="font-family:Times New Roman;font-size:14.00;">Interface</text>
</g>
<!-- 34&#45;&gt;35 -->
<g id="edge10" class="edge"><title>34&#45;&gt;35</title>
<a xlink:title="Type.implements &lt;&#45;&#45;&gt; Interface.implemented_by">
<path style="fill:none;stroke:black;" d="M339,-217C359,-206 385,-191 404,-180"/>
<polygon style="fill:black;stroke:black;" points="337.042,-214.084 330,-222 340.441,-220.203 337.042,-214.084"/>
<polygon style="fill:black;stroke:black;" points="405.958,-182.916 413,-175 402.559,-176.797 405.958,-182.916"/>
</a>
<a xlink:title="Type.implements &lt;&#45;&#45;&gt; Interface.implemented_by">
</a>
<a xlink:title="Type.implements &lt;&#45;&#45;&gt; Interface.implemented_by">
</a>
</g>
<!-- 36 -->
<g id="node3" class="node"><title>36</title>
<ellipse style="fill:#99cc66;stroke:black;" cx="493" cy="-90" rx="28.9661" ry="18"/>
<text text-anchor="middle" x="493" y="-83.4" style="font-family:Times New Roman;font-size:14.00;">Method</text>
</g>
<!-- 35&#45;&gt;36 -->
<g id="edge8" class="edge"><title>35&#45;&gt;36</title>
<a xlink:title="Interface.methods &lt;&#45;&#45;&gt; Method.used_in">
<path style="fill:none;stroke:black;" d="M455,-137C461,-130 468,-122 473,-115"/>
<polygon style="fill:black;stroke:black;" points="452.2,-134.9 449,-145 457.8,-139.1 452.2,-134.9"/>
<polygon style="fill:black;stroke:black;" points="476.049,-116.831 480,-107 470.781,-112.221 476.049,-116.831"/>
</a>
<a xlink:title="Interface.methods &lt;&#45;&#45;&gt; Method.used_in">
</a>
<a xlink:title="Interface.methods &lt;&#45;&#45;&gt; Method.used_in">
</a>
</g>
<!-- 37 -->
<g id="node4" class="node"><title>37</title>
<ellipse style="fill:#99cc66;stroke:black;" cx="493" cy="-18" rx="30.7732" ry="18"/>
<text text-anchor="middle" x="493" y="-11.4" style="font-family:Times New Roman;font-size:14.00;">Variable</text>
</g>
<!-- 36&#45;&gt;37 -->
<g id="edge4" class="edge"><title>36&#45;&gt;37</title>
<a xlink:title="Method.returned &#45;&#45;&#45;&gt; Variable.returned_from_method">
<path style="fill:none;stroke:black;" d="M487,-72C486,-64 486,-55 486,-46"/>
<polygon style="fill:black;stroke:black;" points="489.488,-46.2987 487,-36 482.522,-45.6021 489.488,-46.2987"/>
</a>
<a xlink:title="Method.returned &#45;&#45;&#45;&gt; Variable.returned_from_method">
</a>
<a xlink:title="Method.returned &#45;&#45;&#45;&gt; Variable.returned_from_method">
</a>
</g>
<!-- 36&#45;&gt;37 -->
<g id="edge6" class="edge"><title>36&#45;&gt;37</title>
<a xlink:title="Method.parameters &lt;&#45;&#45;&gt; Variable.parameter_of_method">
<path style="fill:none;stroke:black;" d="M500,-62C500,-57 500,-51 500,-46"/>
<polygon style="fill:black;stroke:black;" points="496.512,-61.7013 499,-72 503.478,-62.3979 496.512,-61.7013"/>
<polygon style="fill:black;stroke:black;" points="503.478,-45.6021 499,-36 496.512,-46.2987 503.478,-45.6021"/>
</a>
<a xlink:title="Method.parameters &lt;&#45;&#45;&gt; Variable.parameter_of_method">
</a>
<a xlink:title="Method.parameters &lt;&#45;&#45;&gt; Variable.parameter_of_method">
</a>
</g>
<!-- 37&#45;&gt;35 -->
<g id="edge2" class="edge"><title>37&#45;&gt;35</title>
<a xlink:title="Variable.interface &#45;&#45;&#45;&gt; Interface.">
<path style="fill:none;stroke:black;" d="M479,-34C470,-45 461,-58 455,-72 446,-91 441,-115 438,-134"/>
<polygon style="fill:black;stroke:black;" points="434.512,-133.701 437,-144 441.478,-134.398 434.512,-133.701"/>
</a>
<a xlink:title="Variable.interface &#45;&#45;&#45;&gt; Interface.">
</a>
<a xlink:title="Variable.interface &#45;&#45;&#45;&gt; Interface.">
</a>
</g>
<!-- 38 -->
<g id="node5" class="node"><title>38</title>
<ellipse style="fill:#99cc66;stroke:black;" cx="192" cy="-306" rx="48.107" ry="18"/>
<text text-anchor="middle" x="192" y="-299.4" style="font-family:Times New Roman;font-size:14.00;">TypeParameter</text>
</g>
<!-- 38&#45;&gt;34 -->
<g id="edge14" class="edge"><title>38&#45;&gt;34</title>
<a xlink:title="TypeParameter.of type &#45;&#45;&#45;&gt; Type.parameters">
<path style="fill:none;stroke:black;" d="M217,-291C235,-279 261,-263 280,-251"/>
<polygon style="fill:black;stroke:black;" points="281.958,-253.916 289,-246 278.559,-247.797 281.958,-253.916"/>
</a>
<a xlink:title="TypeParameter.of type &#45;&#45;&#45;&gt; Type.parameters">
</a>
<a xlink:title="TypeParameter.of type &#45;&#45;&#45;&gt; Type.parameters">
</a>
</g>
<!-- 38&#45;&gt;35 -->
<g id="edge12" class="edge"><title>38&#45;&gt;35</title>
<a xlink:title="TypeParameter.interface &#45;&#45;&#45;&gt; Interface.">
<path style="fill:none;stroke:black;" d="M203,-289C218,-268 243,-235 273,-216 310,-192 360,-177 395,-169"/>
<polygon style="fill:black;stroke:black;" points="395.881,-172.393 405,-167 394.508,-165.529 395.881,-172.393"/>
</a>
<a xlink:title="TypeParameter.interface &#45;&#45;&#45;&gt; Interface.">
</a>
<a xlink:title="TypeParameter.interface &#45;&#45;&#45;&gt; Interface.">
</a>
</g>
<!-- 39 -->
<g id="node6" class="node"><title>39</title>
<ellipse style="fill:#99cc66;stroke:black;" cx="521" cy="-306" rx="101.125" ry="18"/>
<text text-anchor="middle" x="521" y="-299.4" style="font-family:Times New Roman;font-size:14.00;">InterfaceTemplateParameterBinding</text>
</g>
<!-- 39&#45;&gt;34 -->
<g id="edge16" class="edge"><title>39&#45;&gt;34</title>
<a xlink:title="InterfaceTemplateParameterBinding.type &#45;&#45;&#45;&gt; Type.">
<path style="fill:none;stroke:black;" d="M464,-291C429,-281 384,-267 345,-252 343,-251 341,-251 339,-250"/>
<polygon style="fill:black;stroke:black;" points="340.441,-246.797 330,-245 337.042,-252.916 340.441,-246.797"/>
</a>
<a xlink:title="InterfaceTemplateParameterBinding.type &#45;&#45;&#45;&gt; Type.">
</a>
<a xlink:title="InterfaceTemplateParameterBinding.type &#45;&#45;&#45;&gt; Type.">
</a>
</g>
<!-- 40 -->
<g id="node7" class="node"><title>40</title>
<ellipse style="fill:#99cc66;stroke:black;" cx="436" cy="-234" rx="81.7819" ry="18"/>
<text text-anchor="middle" x="436" y="-227.4" style="font-family:Times New Roman;font-size:14.00;">InterfaceTemplateParameter</text>
</g>
<!-- 39&#45;&gt;40 -->
<g id="edge20" class="edge"><title>39&#45;&gt;40</title>
<a xlink:title="InterfaceTemplateParameterBinding.parameter &#45;&#45;&#45;&gt; InterfaceTemplateParameter.">
<path style="fill:none;stroke:black;" d="M500,-288C489,-279 476,-268 465,-258"/>
<polygon style="fill:black;stroke:black;" points="467.1,-255.2 457,-252 462.9,-260.8 467.1,-255.2"/>
</a>
<a xlink:title="InterfaceTemplateParameterBinding.parameter &#45;&#45;&#45;&gt; InterfaceTemplateParameter.">
</a>
<a xlink:title="InterfaceTemplateParameterBinding.parameter &#45;&#45;&#45;&gt; InterfaceTemplateParameter.">
</a>
</g>
<!-- 40&#45;&gt;35 -->
<g id="edge18" class="edge"><title>40&#45;&gt;35</title>
<a xlink:title="InterfaceTemplateParameter.of interface &#45;&#45;&#45;&gt; Interface.template_parameters">
<path style="fill:none;stroke:black;" d="M436,-216C436,-208 436,-199 436,-190"/>
<polygon style="fill:black;stroke:black;" points="439.5,-190 436,-180 432.5,-190 439.5,-190"/>
</a>
<a xlink:title="InterfaceTemplateParameter.of interface &#45;&#45;&#45;&gt; Interface.template_parameters">
</a>
<a xlink:title="InterfaceTemplateParameter.of interface &#45;&#45;&#45;&gt; Interface.template_parameters">
</a>
</g>
<!-- 41 -->
<g id="node8" class="node"><title>41</title>
<ellipse style="fill:#99cc66;stroke:black;" cx="600" cy="-162" rx="78.7753" ry="18"/>
<text text-anchor="middle" x="600" y="-155.4" style="font-family:Times New Roman;font-size:14.00;">MethodTemplateParameter</text>
</g>
<!-- 41&#45;&gt;36 -->
<g id="edge22" class="edge"><title>41&#45;&gt;36</title>
<a xlink:title="MethodTemplateParameter.of method &#45;&#45;&#45;&gt; Method.template_parameters">
<path style="fill:none;stroke:black;" d="M575,-145C559,-134 538,-120 522,-109"/>
<polygon style="fill:black;stroke:black;" points="523.262,-105.635 513,-103 519.379,-111.459 523.262,-105.635"/>
</a>
<a xlink:title="MethodTemplateParameter.of method &#45;&#45;&#45;&gt; Method.template_parameters">
</a>
<a xlink:title="MethodTemplateParameter.of method &#45;&#45;&#45;&gt; Method.template_parameters">
</a>
</g>
<!-- 42 -->
<g id="node9" class="node"><title>42</title>
<ellipse style="fill:#99cc66;stroke:black;" cx="635" cy="-234" rx="99.2207" ry="18"/>
<text text-anchor="middle" x="635" y="-227.4" style="font-family:Times New Roman;font-size:14.00;">MethodTemplateParameterBinding</text>
</g>
<!-- 42&#45;&gt;35 -->
<g id="edge24" class="edge"><title>42&#45;&gt;35</title>
<a xlink:title="MethodTemplateParameterBinding.interface &#45;&#45;&#45;&gt; Interface.">
<path style="fill:none;stroke:black;" d="M590,-218C555,-205 506,-188 472,-175"/>
<polygon style="fill:black;stroke:black;" points="473.594,-171.842 463,-172 471.38,-178.483 473.594,-171.842"/>
</a>
<a xlink:title="MethodTemplateParameterBinding.interface &#45;&#45;&#45;&gt; Interface.">
</a>
<a xlink:title="MethodTemplateParameterBinding.interface &#45;&#45;&#45;&gt; Interface.">
</a>
</g>
<!-- 42&#45;&gt;41 -->
<g id="edge26" class="edge"><title>42&#45;&gt;41</title>
<a xlink:title="MethodTemplateParameterBinding.parameter &#45;&#45;&#45;&gt; MethodTemplateParameter.">
<path style="fill:none;stroke:black;" d="M626,-216C622,-208 618,-198 613,-189"/>
<polygon style="fill:black;stroke:black;" points="616.26,-187.717 609,-180 609.863,-190.56 616.26,-187.717"/>
</a>
<a xlink:title="MethodTemplateParameterBinding.parameter &#45;&#45;&#45;&gt; MethodTemplateParameter.">
</a>
<a xlink:title="MethodTemplateParameterBinding.parameter &#45;&#45;&#45;&gt; MethodTemplateParameter.">
</a>
</g>
<!-- 43 -->
<g id="node10" class="node"><title>43</title>
<ellipse style="fill:#99cc66;stroke:black;" cx="330" cy="-306" rx="72.1605" ry="18"/>
<text text-anchor="middle" x="330" y="-299.4" style="font-family:Times New Roman;font-size:14.00;">TypeTemplateParameter</text>
</g>
<!-- 43&#45;&gt;34 -->
<g id="edge28" class="edge"><title>43&#45;&gt;34</title>
<a xlink:title="TypeTemplateParameter.of type &#45;&#45;&#45;&gt; Type.template_parameters">
<path style="fill:none;stroke:black;" d="M325,-288C322,-280 319,-271 317,-262"/>
<polygon style="fill:black;stroke:black;" points="320.226,-260.573 314,-252 313.521,-262.584 320.226,-260.573"/>
</a>
<a xlink:title="TypeTemplateParameter.of type &#45;&#45;&#45;&gt; Type.template_parameters">
</a>
<a xlink:title="TypeTemplateParameter.of type &#45;&#45;&#45;&gt; Type.template_parameters">
</a>
</g>
<!-- 44 -->
<g id="node11" class="node"><title>44</title>
<ellipse style="fill:#cc6699;stroke:black;" cx="303" cy="-378" rx="92.1054" ry="18"/>
<text text-anchor="middle" x="303" y="-371.4" style="font-family:Times New Roman;font-size:14.00;">TypeTemplateParameterBinding</text>
</g>
<!-- 44&#45;&gt;43 -->
<g id="edge36" class="edge"><title>44&#45;&gt;43</title>
<a xlink:title="TypeTemplateParameterBinding.parameter &#45;&#45;&#45;&gt; TypeTemplateParameter.">
<path style="fill:none;stroke:black;" d="M310,-360C313,-352 316,-342 320,-334"/>
<polygon style="fill:black;stroke:black;" points="323.479,-334.584 323,-324 316.774,-332.573 323.479,-334.584"/>
</a>
<a xlink:title="TypeTemplateParameterBinding.parameter &#45;&#45;&#45;&gt; TypeTemplateParameter.">
</a>
<a xlink:title="TypeTemplateParameterBinding.parameter &#45;&#45;&#45;&gt; TypeTemplateParameter.">
</a>
</g>
<!-- 45 -->
<g id="node12" class="node"><title>45</title>
<ellipse style="fill:#cc6699;stroke:black;" cx="99" cy="-306" rx="27" ry="18"/>
<text text-anchor="middle" x="99" y="-299.4" style="font-family:Times New Roman;font-size:14.00;">Object</text>
</g>
<!-- 44&#45;&gt;45 -->
<g id="edge34" class="edge"><title>44&#45;&gt;45</title>
<a xlink:title="TypeTemplateParameterBinding.object &#45;&#45;&#45;&gt; Object.">
<path style="fill:none;stroke:black;" d="M251,-363C217,-353 173,-339 135,-324 133,-323 131,-322 129,-321"/>
<polygon style="fill:black;stroke:black;" points="130.56,-317.863 120,-317 127.717,-324.26 130.56,-317.863"/>
</a>
<a xlink:title="TypeTemplateParameterBinding.object &#45;&#45;&#45;&gt; Object.">
</a>
<a xlink:title="TypeTemplateParameterBinding.object &#45;&#45;&#45;&gt; Object.">
</a>
</g>
<!-- 45&#45;&gt;34 -->
<g id="edge32" class="edge"><title>45&#45;&gt;34</title>
<a xlink:title="Object.type &#45;&#45;&#45;&gt; Type.instances">
<path style="fill:none;stroke:black;" d="M120,-294C125,-292 130,-290 135,-288 182,-269 239,-252 274,-243"/>
<polygon style="fill:black;stroke:black;" points="275.427,-246.226 284,-240 273.416,-239.521 275.427,-246.226"/>
</a>
<a xlink:title="Object.type &#45;&#45;&#45;&gt; Type.instances">
</a>
<a xlink:title="Object.type &#45;&#45;&#45;&gt; Type.instances">
</a>
</g>
<!-- 46 -->
<g id="node13" class="node"><title>46</title>
<ellipse style="fill:#cc6699;stroke:black;" cx="63" cy="-234" rx="27" ry="18"/>
<text text-anchor="middle" x="63" y="-227.4" style="font-family:Times New Roman;font-size:14.00;">Game</text>
</g>
<!-- 45&#45;&gt;46 -->
<g id="edge30" class="edge"><title>45&#45;&gt;46</title>
<a xlink:title="Object.game &#45;&#45;&#45;&gt; Game.">
<path style="fill:none;stroke:black;" d="M90,-289C86,-280 81,-270 76,-260"/>
<polygon style="fill:black;stroke:black;" points="79.2598,-258.717 72,-251 72.8631,-261.56 79.2598,-258.717"/>
</a>
<a xlink:title="Object.game &#45;&#45;&#45;&gt; Game.">
</a>
<a xlink:title="Object.game &#45;&#45;&#45;&gt; Game.">
</a>
</g>
<!-- 47 -->
<g id="node14" class="node"><title>47</title>
<ellipse style="fill:#cc6699;stroke:black;" cx="99" cy="-378" rx="68.0521" ry="18"/>
<text text-anchor="middle" x="99" y="-371.4" style="font-family:Times New Roman;font-size:14.00;">TypeParameterBinding</text>
</g>
<!-- 47&#45;&gt;38 -->
<g id="edge40" class="edge"><title>47&#45;&gt;38</title>
<a xlink:title="TypeParameterBinding.parameter &#45;&#45;&#45;&gt; TypeParameter.bindings">
<path style="fill:none;stroke:black;" d="M121,-361C133,-351 149,-339 163,-328"/>
<polygon style="fill:black;stroke:black;" points="165.1,-330.8 171,-322 160.9,-325.2 165.1,-330.8"/>
</a>
<a xlink:title="TypeParameterBinding.parameter &#45;&#45;&#45;&gt; TypeParameter.bindings">
</a>
<a xlink:title="TypeParameterBinding.parameter &#45;&#45;&#45;&gt; TypeParameter.bindings">
</a>
</g>
<!-- 47&#45;&gt;45 -->
<g id="edge38" class="edge"><title>47&#45;&gt;45</title>
<a xlink:title="TypeParameterBinding.instance &#45;&#45;&#45;&gt; Object.parameter_bindings">
<path style="fill:none;stroke:black;" d="M93,-360C92,-352 92,-343 92,-334"/>
<polygon style="fill:black;stroke:black;" points="95.4875,-334.299 93,-324 88.5222,-333.602 95.4875,-334.299"/>
</a>
<a xlink:title="TypeParameterBinding.instance &#45;&#45;&#45;&gt; Object.parameter_bindings">
</a>
<a xlink:title="TypeParameterBinding.instance &#45;&#45;&#45;&gt; Object.parameter_bindings">
</a>
</g>
<!-- 47&#45;&gt;45 -->
<g id="edge42" class="edge"><title>47&#45;&gt;45</title>
<a xlink:title="TypeParameterBinding.object argument &#45;&#45;&#45;&gt; Object.bound_to">
<path style="fill:none;stroke:black;" d="M105,-360C106,-352 106,-343 106,-334"/>
<polygon style="fill:black;stroke:black;" points="109.478,-333.602 105,-324 102.512,-334.299 109.478,-333.602"/>
</a>
<a xlink:title="TypeParameterBinding.object argument &#45;&#45;&#45;&gt; Object.bound_to">
</a>
<a xlink:title="TypeParameterBinding.object argument &#45;&#45;&#45;&gt; Object.bound_to">
</a>
</g>
<!-- 48 -->
<g id="node15" class="node"><title>48</title>
<ellipse style="fill:#cc9966;stroke:black;" cx="27" cy="-306" rx="27" ry="18"/>
<text text-anchor="middle" x="27" y="-299.4" style="font-family:Times New Roman;font-size:14.00;">Match</text>
</g>
<!-- 48&#45;&gt;46 -->
<g id="edge44" class="edge"><title>48&#45;&gt;46</title>
<a xlink:title="Match.game &#45;&#45;&#45;&gt; Game.">
<path style="fill:none;stroke:black;" d="M36,-289C40,-280 45,-270 50,-260"/>
<polygon style="fill:black;stroke:black;" points="53.1369,-261.56 54,-251 46.7402,-258.717 53.1369,-261.56"/>
</a>
<a xlink:title="Match.game &#45;&#45;&#45;&gt; Game.">
</a>
<a xlink:title="Match.game &#45;&#45;&#45;&gt; Game.">
</a>
</g>
</g>
</svg>
