<?xml version="1.0" encoding="UTF-8" standalone="no"?>
<!DOCTYPE svg PUBLIC "-//W3C//DTD SVG 1.0//EN"
 "http://www.w3.org/TR/2001/REC-SVG-20010904/DTD/svg10.dtd" [
 <!ATTLIST svg xmlns:xlink CDATA #FIXED "http://www.w3.org/1999/xlink">
]>
<!-- Generated by Graphviz version 2.20.3 (Fri Feb 13 02:52:03 UTC 2009)
     For user: (kevin) Kevin Tonon -->
<!-- Title: Models Pages: 1 -->
<svg width="708pt" height="260pt"
 viewBox="0.00 0.00 708.00 260.00" xmlns="http://www.w3.org/2000/svg" xmlns:xlink="http://www.w3.org/1999/xlink">
<g id="graph0" class="graph" transform="scale(1 1) rotate(0) translate(4 256)">
<title>Models</title>
<polygon style="fill:white;stroke:white;" points="-4,4 -4,-256 704,-256 704,4 -4,4"/>
<!-- 0 -->
<g id="node1" class="node"><title>0</title>
<ellipse style="fill:#99cc66;stroke:black;" cx="392" cy="-90" rx="27" ry="18"/>
<text text-anchor="middle" x="392" y="-83.4" style="font-family:Times New Roman;font-size:14.00;">Type</text>
</g>
<!-- 1 -->
<g id="node2" class="node"><title>1</title>
<ellipse style="fill:#99cc66;stroke:black;" cx="519" cy="-18" rx="31.8709" ry="18"/>
<text text-anchor="middle" x="519" y="-11.4" style="font-family:Times New Roman;font-size:14.00;">Interface</text>
</g>
<!-- 0&#45;&gt;1 -->
<g id="edge2" class="edge"><title>0&#45;&gt;1</title>
<a xlink:title="Type.implements &lt;&#45;&#45;&gt; Interface.implemented_by">
<path style="fill:none;stroke:black;" d="M422,-73C442,-62 468,-47 487,-36"/>
<polygon style="fill:black;stroke:black;" points="420.042,-70.084 413,-78 423.441,-76.2031 420.042,-70.084"/>
<polygon style="fill:black;stroke:black;" points="488.958,-38.916 496,-31 485.559,-32.7969 488.958,-38.916"/>
</a>
<a xlink:title="Type.implements &lt;&#45;&#45;&gt; Interface.implemented_by">
</a>
<a xlink:title="Type.implements &lt;&#45;&#45;&gt; Interface.implemented_by">
</a>
</g>
<!-- 2 -->
<g id="node3" class="node"><title>2</title>
<ellipse style="fill:#99cc66;stroke:black;" cx="669" cy="-162" rx="28.9661" ry="18"/>
<text text-anchor="middle" x="669" y="-155.4" style="font-family:Times New Roman;font-size:14.00;">Method</text>
</g>
<!-- 2&#45;&gt;1 -->
<g id="edge4" class="edge"><title>2&#45;&gt;1</title>
<a xlink:title="Method.interface &#45;&#45;&#45;&gt; Interface.methods">
<path style="fill:none;stroke:black;" d="M653,-147C627,-122 574,-71 543,-41"/>
<polygon style="fill:black;stroke:black;" points="545.546,-38.5962 536,-34 540.596,-43.546 545.546,-38.5962"/>
</a>
<a xlink:title="Method.interface &#45;&#45;&#45;&gt; Interface.methods">
</a>
<a xlink:title="Method.interface &#45;&#45;&#45;&gt; Interface.methods">
</a>
</g>
<!-- 3 -->
<g id="node4" class="node"><title>3</title>
<ellipse style="fill:#99cc66;stroke:black;" cx="669" cy="-90" rx="30.7732" ry="18"/>
<text text-anchor="middle" x="669" y="-83.4" style="font-family:Times New Roman;font-size:14.00;">Variable</text>
</g>
<!-- 2&#45;&gt;3 -->
<g id="edge8" class="edge"><title>2&#45;&gt;3</title>
<a xlink:title="Method.returned &#45;&#45;&#45;&gt; Variable.returned_from_method">
<path style="fill:none;stroke:black;" d="M663,-144C662,-136 662,-127 662,-118"/>
<polygon style="fill:black;stroke:black;" points="665.488,-118.299 663,-108 658.522,-117.602 665.488,-118.299"/>
</a>
<a xlink:title="Method.returned &#45;&#45;&#45;&gt; Variable.returned_from_method">
</a>
<a xlink:title="Method.returned &#45;&#45;&#45;&gt; Variable.returned_from_method">
</a>
</g>
<!-- 2&#45;&gt;3 -->
<g id="edge10" class="edge"><title>2&#45;&gt;3</title>
<a xlink:title="Method.parameters &lt;&#45;&#45;&gt; Variable.parameter_of_method">
<path style="fill:none;stroke:black;" d="M676,-134C676,-129 676,-123 676,-118"/>
<polygon style="fill:black;stroke:black;" points="672.512,-133.701 675,-144 679.478,-134.398 672.512,-133.701"/>
<polygon style="fill:black;stroke:black;" points="679.478,-117.602 675,-108 672.512,-118.299 679.478,-117.602"/>
</a>
<a xlink:title="Method.parameters &lt;&#45;&#45;&gt; Variable.parameter_of_method">
</a>
<a xlink:title="Method.parameters &lt;&#45;&#45;&gt; Variable.parameter_of_method">
</a>
</g>
<!-- 3&#45;&gt;1 -->
<g id="edge6" class="edge"><title>3&#45;&gt;1</title>
<a xlink:title="Variable.interface &#45;&#45;&#45;&gt; Interface.">
<path style="fill:none;stroke:black;" d="M645,-78C620,-66 581,-48 552,-34"/>
<polygon style="fill:black;stroke:black;" points="553.56,-30.8631 543,-30 550.717,-37.2598 553.56,-30.8631"/>
</a>
<a xlink:title="Variable.interface &#45;&#45;&#45;&gt; Interface.">
</a>
<a xlink:title="Variable.interface &#45;&#45;&#45;&gt; Interface.">
</a>
</g>
<!-- 4 -->
<g id="node5" class="node"><title>4</title>
<ellipse style="fill:#99cc66;stroke:black;" cx="502" cy="-162" rx="48.107" ry="18"/>
<text text-anchor="middle" x="502" y="-155.4" style="font-family:Times New Roman;font-size:14.00;">TypeParameter</text>
</g>
<!-- 4&#45;&gt;0 -->
<g id="edge12" class="edge"><title>4&#45;&gt;0</title>
<a xlink:title="TypeParameter.of type &#45;&#45;&#45;&gt; Type.parameters">
<path style="fill:none;stroke:black;" d="M478,-146C461,-135 438,-120 420,-108"/>
<polygon style="fill:black;stroke:black;" points="421.441,-104.797 411,-103 418.042,-110.916 421.441,-104.797"/>
</a>
<a xlink:title="TypeParameter.of type &#45;&#45;&#45;&gt; Type.parameters">
</a>
<a xlink:title="TypeParameter.of type &#45;&#45;&#45;&gt; Type.parameters">
</a>
</g>
<!-- 4&#45;&gt;1 -->
<g id="edge14" class="edge"><title>4&#45;&gt;1</title>
<a xlink:title="TypeParameter.interfaces &lt;&#45;&#45;&gt; Interface.used_in_parameter">
<path style="fill:none;stroke:black;" d="M505,-134C509,-109 513,-72 516,-46"/>
<polygon style="fill:black;stroke:black;" points="501.512,-133.701 504,-144 508.478,-134.398 501.512,-133.701"/>
<polygon style="fill:black;stroke:black;" points="519.488,-46.2987 517,-36 512.522,-45.6021 519.488,-46.2987"/>
</a>
<a xlink:title="TypeParameter.interfaces &lt;&#45;&#45;&gt; Interface.used_in_parameter">
</a>
<a xlink:title="TypeParameter.interfaces &lt;&#45;&#45;&gt; Interface.used_in_parameter">
</a>
</g>
<!-- 5 -->
<g id="node6" class="node"><title>5</title>
<ellipse style="fill:#99cc66;stroke:black;" cx="101" cy="-162" rx="101.125" ry="18"/>
<text text-anchor="middle" x="101" y="-155.4" style="font-family:Times New Roman;font-size:14.00;">InterfaceTemplateParameterBinding</text>
</g>
<!-- 5&#45;&gt;0 -->
<g id="edge16" class="edge"><title>5&#45;&gt;0</title>
<a xlink:title="InterfaceTemplateParameterBinding.type &#45;&#45;&#45;&gt; Type.">
<path style="fill:none;stroke:black;" d="M160,-147C219,-132 308,-110 357,-98"/>
<polygon style="fill:black;stroke:black;" points="357.881,-101.393 367,-96 356.508,-94.5292 357.881,-101.393"/>
</a>
<a xlink:title="InterfaceTemplateParameterBinding.type &#45;&#45;&#45;&gt; Type.">
</a>
<a xlink:title="InterfaceTemplateParameterBinding.type &#45;&#45;&#45;&gt; Type.">
</a>
</g>
<!-- 6 -->
<g id="node7" class="node"><title>6</title>
<ellipse style="fill:#99cc66;stroke:black;" cx="192" cy="-90" rx="81.7819" ry="18"/>
<text text-anchor="middle" x="192" y="-83.4" style="font-family:Times New Roman;font-size:14.00;">InterfaceTemplateParameter</text>
</g>
<!-- 5&#45;&gt;6 -->
<g id="edge20" class="edge"><title>5&#45;&gt;6</title>
<a xlink:title="InterfaceTemplateParameterBinding.parameter &#45;&#45;&#45;&gt; InterfaceTemplateParameter.">
<path style="fill:none;stroke:black;" d="M123,-144C134,-135 149,-124 162,-114"/>
<polygon style="fill:black;stroke:black;" points="164.779,-116.219 170,-107 160.169,-110.951 164.779,-116.219"/>
</a>
<a xlink:title="InterfaceTemplateParameterBinding.parameter &#45;&#45;&#45;&gt; InterfaceTemplateParameter.">
</a>
<a xlink:title="InterfaceTemplateParameterBinding.parameter &#45;&#45;&#45;&gt; InterfaceTemplateParameter.">
</a>
</g>
<!-- 6&#45;&gt;1 -->
<g id="edge18" class="edge"><title>6&#45;&gt;1</title>
<a xlink:title="InterfaceTemplateParameter.of interface &#45;&#45;&#45;&gt; Interface.template_parameters">
<path style="fill:none;stroke:black;" d="M250,-77C316,-63 422,-40 479,-27"/>
<polygon style="fill:black;stroke:black;" points="479.881,-30.3933 489,-25 478.508,-23.5292 479.881,-30.3933"/>
</a>
<a xlink:title="InterfaceTemplateParameter.of interface &#45;&#45;&#45;&gt; Interface.template_parameters">
</a>
<a xlink:title="InterfaceTemplateParameter.of interface &#45;&#45;&#45;&gt; Interface.template_parameters">
</a>
</g>
<!-- 7 -->
<g id="node8" class="node"><title>7</title>
<ellipse style="fill:#99cc66;stroke:black;" cx="292" cy="-162" rx="72.1605" ry="18"/>
<text text-anchor="middle" x="292" y="-155.4" style="font-family:Times New Roman;font-size:14.00;">TypeTemplateParameter</text>
</g>
<!-- 7&#45;&gt;0 -->
<g id="edge22" class="edge"><title>7&#45;&gt;0</title>
<a xlink:title="TypeTemplateParameter.of type &#45;&#45;&#45;&gt; Type.template_parameters">
<path style="fill:none;stroke:black;" d="M316,-145C330,-134 349,-120 365,-109"/>
<polygon style="fill:black;stroke:black;" points="367.1,-111.8 373,-103 362.9,-106.2 367.1,-111.8"/>
</a>
<a xlink:title="TypeTemplateParameter.of type &#45;&#45;&#45;&gt; Type.template_parameters">
</a>
<a xlink:title="TypeTemplateParameter.of type &#45;&#45;&#45;&gt; Type.template_parameters">
</a>
</g>
<!-- 8 -->
<g id="node9" class="node"><title>8</title>
<ellipse style="fill:#cc6699;stroke:black;" cx="292" cy="-234" rx="92.1054" ry="18"/>
<text text-anchor="middle" x="292" y="-227.4" style="font-family:Times New Roman;font-size:14.00;">TypeTemplateParameterBinding</text>
</g>
<!-- 8&#45;&gt;7 -->
<g id="edge30" class="edge"><title>8&#45;&gt;7</title>
<a xlink:title="TypeTemplateParameterBinding.parameter &#45;&#45;&#45;&gt; TypeTemplateParameter.">
<path style="fill:none;stroke:black;" d="M292,-216C292,-208 292,-199 292,-190"/>
<polygon style="fill:black;stroke:black;" points="295.5,-190 292,-180 288.5,-190 295.5,-190"/>
</a>
<a xlink:title="TypeTemplateParameterBinding.parameter &#45;&#45;&#45;&gt; TypeTemplateParameter.">
</a>
<a xlink:title="TypeTemplateParameterBinding.parameter &#45;&#45;&#45;&gt; TypeTemplateParameter.">
</a>
</g>
<!-- 9 -->
<g id="node10" class="node"><title>9</title>
<ellipse style="fill:#cc6699;stroke:black;" cx="409" cy="-162" rx="27" ry="18"/>
<text text-anchor="middle" x="409" y="-155.4" style="font-family:Times New Roman;font-size:14.00;">Object</text>
</g>
<!-- 8&#45;&gt;9 -->
<g id="edge28" class="edge"><title>8&#45;&gt;9</title>
<a xlink:title="TypeTemplateParameterBinding.object &#45;&#45;&#45;&gt; Object.">
<path style="fill:none;stroke:black;" d="M320,-217C338,-206 362,-191 380,-179"/>
<polygon style="fill:black;stroke:black;" points="381.958,-181.916 389,-174 378.559,-175.797 381.958,-181.916"/>
</a>
<a xlink:title="TypeTemplateParameterBinding.object &#45;&#45;&#45;&gt; Object.">
</a>
<a xlink:title="TypeTemplateParameterBinding.object &#45;&#45;&#45;&gt; Object.">
</a>
</g>
<!-- 9&#45;&gt;0 -->
<g id="edge26" class="edge"><title>9&#45;&gt;0</title>
<a xlink:title="Object.type &#45;&#45;&#45;&gt; Type.instances">
<path style="fill:none;stroke:black;" d="M405,-144C403,-136 401,-127 399,-118"/>
<polygon style="fill:black;stroke:black;" points="402.226,-116.573 396,-108 395.521,-118.584 402.226,-116.573"/>
</a>
<a xlink:title="Object.type &#45;&#45;&#45;&gt; Type.instances">
</a>
<a xlink:title="Object.type &#45;&#45;&#45;&gt; Type.instances">
</a>
</g>
<!-- 10 -->
<g id="node11" class="node"><title>10</title>
<ellipse style="fill:#cc6699;stroke:black;" cx="464" cy="-90" rx="27" ry="18"/>
<text text-anchor="middle" x="464" y="-83.4" style="font-family:Times New Roman;font-size:14.00;">Game</text>
</g>
<!-- 9&#45;&gt;10 -->
<g id="edge24" class="edge"><title>9&#45;&gt;10</title>
<a xlink:title="Object.game &#45;&#45;&#45;&gt; Game.">
<path style="fill:none;stroke:black;" d="M421,-146C428,-137 438,-125 446,-114"/>
<polygon style="fill:black;stroke:black;" points="448.8,-116.1 452,-106 443.2,-111.9 448.8,-116.1"/>
</a>
<a xlink:title="Object.game &#45;&#45;&#45;&gt; Game.">
</a>
<a xlink:title="Object.game &#45;&#45;&#45;&gt; Game.">
</a>
</g>
<!-- 11 -->
<g id="node12" class="node"><title>11</title>
<ellipse style="fill:#cc6699;stroke:black;" cx="470" cy="-234" rx="68.0521" ry="18"/>
<text text-anchor="middle" x="470" y="-227.4" style="font-family:Times New Roman;font-size:14.00;">TypeParameterBinding</text>
</g>
<!-- 11&#45;&gt;4 -->
<g id="edge34" class="edge"><title>11&#45;&gt;4</title>
<a xlink:title="TypeParameterBinding.parameter &#45;&#45;&#45;&gt; TypeParameter.bindings">
<path style="fill:none;stroke:black;" d="M478,-216C482,-208 486,-198 490,-189"/>
<polygon style="fill:black;stroke:black;" points="493.137,-190.56 494,-180 486.74,-187.717 493.137,-190.56"/>
</a>
<a xlink:title="TypeParameterBinding.parameter &#45;&#45;&#45;&gt; TypeParameter.bindings">
</a>
<a xlink:title="TypeParameterBinding.parameter &#45;&#45;&#45;&gt; TypeParameter.bindings">
</a>
</g>
<!-- 11&#45;&gt;9 -->
<g id="edge32" class="edge"><title>11&#45;&gt;9</title>
<a xlink:title="TypeParameterBinding.instance &#45;&#45;&#45;&gt; Object.parameter_bindings">
<path style="fill:none;stroke:black;" d="M449,-217C440,-208 431,-197 424,-187"/>
<polygon style="fill:black;stroke:black;" points="426.8,-184.9 418,-179 421.2,-189.1 426.8,-184.9"/>
</a>
<a xlink:title="TypeParameterBinding.instance &#45;&#45;&#45;&gt; Object.parameter_bindings">
</a>
<a xlink:title="TypeParameterBinding.instance &#45;&#45;&#45;&gt; Object.parameter_bindings">
</a>
</g>
<!-- 11&#45;&gt;9 -->
<g id="edge36" class="edge"><title>11&#45;&gt;9</title>
<a xlink:title="TypeParameterBinding.object argument &#45;&#45;&#45;&gt; Object.bound_to">
<path style="fill:none;stroke:black;" d="M461,-216C454,-206 443,-194 434,-183"/>
<polygon style="fill:black;stroke:black;" points="436.546,-180.596 427,-176 431.596,-185.546 436.546,-180.596"/>
</a>
<a xlink:title="TypeParameterBinding.object argument &#45;&#45;&#45;&gt; Object.bound_to">
</a>
<a xlink:title="TypeParameterBinding.object argument &#45;&#45;&#45;&gt; Object.bound_to">
</a>
</g>
<!-- 12 -->
<g id="node13" class="node"><title>12</title>
<ellipse style="fill:#cc9966;stroke:black;" cx="595" cy="-162" rx="27" ry="18"/>
<text text-anchor="middle" x="595" y="-155.4" style="font-family:Times New Roman;font-size:14.00;">Match</text>
</g>
<!-- 12&#45;&gt;10 -->
<g id="edge38" class="edge"><title>12&#45;&gt;10</title>
<a xlink:title="Match.game &#45;&#45;&#45;&gt; Game.">
<path style="fill:none;stroke:black;" d="M574,-150C553,-139 518,-120 494,-107"/>
<polygon style="fill:black;stroke:black;" points="495.441,-103.797 485,-102 492.042,-109.916 495.441,-103.797"/>
</a>
<a xlink:title="Match.game &#45;&#45;&#45;&gt; Game.">
</a>
<a xlink:title="Match.game &#45;&#45;&#45;&gt; Game.">
</a>
</g>
</g>
</svg>
