<?xml version="1.0" encoding="UTF-8" standalone="no"?>
<!DOCTYPE svg PUBLIC "-//W3C//DTD SVG 1.1//EN"
 "http://www.w3.org/Graphics/SVG/1.1/DTD/svg11.dtd">
<!-- Generated by graphviz version 2.26.3 (20100126.1600)
 -->
<!-- Title: Flow Pages: 1 -->
<svg width="172pt" height="192pt"
 viewBox="0.00 0.00 172.00 192.00" xmlns="http://www.w3.org/2000/svg" xmlns:xlink="http://www.w3.org/1999/xlink">
<g id="graph1" class="graph" transform="scale(1 1) rotate(0) translate(4 188)">
<title>Flow</title>
<polygon fill="white" stroke="white" points="-4,5 -4,-188 169,-188 169,5 -4,5"/>
<!-- 205 -->
<g id="node1" class="node"><title>205</title>
<polygon fill="#99ccff" stroke="black" points="72,-36 3.55271e-14,-36 0,-1.77636e-14 72,-3.55271e-15 72,-36"/>
<text text-anchor="middle" x="36" y="-12.9" font-family="Times,serif" font-size="14.00">Container</text>
</g>
<!-- 206 -->
<g id="node2" class="node"><title>206</title>
<ellipse fill="lightgrey" stroke="black" cx="81" cy="-92" rx="31.9972" ry="18"/>
<text text-anchor="middle" x="81" y="-86.9" font-family="Times,serif" font-size="14.00">Move</text>
</g>
<!-- 206&#45;&gt;205 -->
<g id="edge2" class="edge"><title>206&#45;&gt;205</title>
<path fill="none" stroke="gray" d="M70.563,-74.8369C65.156,-65.9455 58.4295,-54.8841 52.3514,-44.889"/>
<polygon fill="gray" stroke="gray" points="55.1946,-42.8281 47.0082,-36.1024 49.2136,-46.4652 55.1946,-42.8281"/>
<text text-anchor="middle" x="91" y="-49.9" font-family="Times,serif" font-size="14.00" fill="blue">destination</text>
</g>
<!-- 208 -->
<g id="node4" class="node"><title>208</title>
<polygon fill="lightgrey" stroke="black" points="164,-36 90,-36 90,-1.77636e-14 164,-3.55271e-15 164,-36"/>
<text text-anchor="middle" x="127" y="-12.9" font-family="Times,serif" font-size="14.00">Text input</text>
</g>
<!-- 206&#45;&gt;208 -->
<g id="edge4" class="edge"><title>206&#45;&gt;208</title>
<path fill="none" stroke="gray" d="M91.6689,-74.8369C97.1961,-65.9455 104.072,-54.8841 110.285,-44.889"/>
<polygon fill="gray" stroke="gray" points="113.44,-46.4431 115.747,-36.1024 107.495,-42.7475 113.44,-46.4431"/>
<text text-anchor="middle" x="123" y="-49.9" font-family="Times,serif" font-size="14.00" fill="blue">source</text>
</g>
<!-- 207 -->
<g id="node3" class="node"><title>207</title>
<polygon fill="lightgrey" stroke="black" points="125,-184 37,-184 37,-148 125,-148 125,-184"/>
<text text-anchor="middle" x="81" y="-160.9" font-family="Times,serif" font-size="14.00">Move button</text>
</g>
<!-- 207&#45;&gt;206 -->
<g id="edge6" class="edge"><title>207&#45;&gt;206</title>
<path fill="none" stroke="gray" d="M81,-147.708C81,-139.464 81,-129.538 81,-120.362"/>
<polygon fill="gray" stroke="gray" points="84.5001,-120.082 81,-110.082 77.5001,-120.082 84.5001,-120.082"/>
<text text-anchor="middle" x="99" y="-123.9" font-family="Times,serif" font-size="14.00" fill="blue">action</text>
</g>
</g>
</svg>
