<?xml version="1.0" encoding="UTF-8" standalone="no"?>
<!DOCTYPE svg PUBLIC "-//W3C//DTD SVG 1.0//EN"
 "http://www.w3.org/TR/2001/REC-SVG-20010904/DTD/svg10.dtd" [
 <!ATTLIST svg xmlns:xlink CDATA #FIXED "http://www.w3.org/1999/xlink">
]>
<!-- Generated by Graphviz version 2.20.3 (Fri Feb 13 02:52:03 UTC 2009)
     For user: (kevin) Kevin Tonon -->
<!-- Title: Flow Pages: 1 -->
<svg width="325pt" height="118pt"
 viewBox="0.00 0.00 325.00 118.00" xmlns="http://www.w3.org/2000/svg" xmlns:xlink="http://www.w3.org/1999/xlink">
<g id="graph0" class="graph" transform="scale(1 1) rotate(0) translate(4 114)">
<title>Flow</title>
<polygon style="fill:white;stroke:white;" points="-4,4 -4,-114 321,-114 321,4 -4,4"/>
<!-- 54 -->
<g id="node1" class="node"><title>54</title>
<polygon style="fill:lightgrey;stroke:black;" points="55,-110 11,-110 11,-74 55,-74 55,-110"/>
<text text-anchor="middle" x="33" y="-85.4" style="font-family:Times New Roman;font-size:14.00;">Button</text>
</g>
<!-- 55 -->
<g id="node2" class="node"><title>55</title>
<ellipse style="fill:lightgrey;stroke:black;" cx="33" cy="-18" rx="33.0736" ry="18"/>
<text text-anchor="middle" x="33" y="-11.4" style="font-family:Times New Roman;font-size:14.00;">SayHello</text>
</g>
<!-- 54&#45;&gt;55 -->
<g id="edge2" class="edge"><title>54&#45;&gt;55</title>
<path style="fill:none;stroke:gray;" d="M33,-74C33,-65 33,-56 33,-46"/>
<polygon style="fill:gray;stroke:gray;" points="36.5001,-46 33,-36 29.5001,-46 36.5001,-46"/>
<text text-anchor="middle" x="46" y="-48.4" style="font-family:Times New Roman;font-size:14.00;fill:blue;">action</text>
</g>
<!-- 56 -->
<g id="node3" class="node"><title>56</title>
<ellipse style="fill:lightgrey;stroke:black;" cx="117" cy="-18" rx="33.0736" ry="18"/>
<text text-anchor="middle" x="117" y="-11.4" style="font-family:Times New Roman;font-size:14.00;">SayHello</text>
</g>
<!-- 57 -->
<g id="node4" class="node"><title>57</title>
<ellipse style="fill:lightgrey;stroke:black;" cx="117" cy="-92" rx="36.1791" ry="18"/>
<text text-anchor="middle" x="117" y="-85.4" style="font-family:Times New Roman;font-size:14.00;">GameStart</text>
</g>
<!-- 57&#45;&gt;56 -->
<g id="edge4" class="edge"><title>57&#45;&gt;56</title>
<path style="fill:none;stroke:gray;" d="M117,-74C117,-65 117,-56 117,-46"/>
<polygon style="fill:gray;stroke:gray;" points="120.5,-46 117,-36 113.5,-46 120.5,-46"/>
<text text-anchor="middle" x="130" y="-48.4" style="font-family:Times New Roman;font-size:14.00;fill:blue;">action</text>
</g>
<!-- 58 -->
<g id="node5" class="node"><title>58</title>
<polygon style="fill:#6699cc;stroke:black;" points="243,-110 171,-110 171,-74 243,-74 243,-110"/>
<text text-anchor="middle" x="207" y="-85.4" style="font-family:Times New Roman;font-size:14.00;">SquareGrid</text>
</g>
<!-- 59 -->
<g id="node6" class="node"><title>59</title>
<polygon style="fill:#99ccff;stroke:black;" points="317,-110 261,-110 261,-74 317,-74 317,-110"/>
<text text-anchor="middle" x="289" y="-85.4" style="font-family:Times New Roman;font-size:14.00;">TextField</text>
</g>
</g>
</svg>
