<?xml version="1.0" encoding="UTF-8" standalone="no"?>
<!DOCTYPE svg PUBLIC "-//W3C//DTD SVG 1.0//EN"
 "http://www.w3.org/TR/2001/REC-SVG-20010904/DTD/svg10.dtd" [
 <!ATTLIST svg xmlns:xlink CDATA #FIXED "http://www.w3.org/1999/xlink">
]>
<!-- Generated by Graphviz version 2.20.3 (Fri Feb 13 02:52:03 UTC 2009)
     For user: (kevin) Kevin Tonon -->
<!-- Title: Flow Pages: 1 -->
<svg width="446pt" height="266pt"
 viewBox="0.00 0.00 446.00 266.00" xmlns="http://www.w3.org/2000/svg" xmlns:xlink="http://www.w3.org/1999/xlink">
<g id="graph0" class="graph" transform="scale(1 1) rotate(0) translate(4 262)">
<title>Flow</title>
<polygon style="fill:white;stroke:white;" points="-4,4 -4,-262 442,-262 442,4 -4,4"/>
<!-- 0 -->
<g id="node1" class="node"><title>0</title>
<ellipse style="fill:none;stroke:black;" cx="72" cy="-18" rx="37.9858" ry="18"/>
<text text-anchor="middle" x="72" y="-11.4" style="font-family:Times New Roman;font-size:14.00;">SquareGrid</text>
</g>
<!-- 1 -->
<g id="node2" class="node"><title>1</title>
<ellipse style="fill:none;stroke:black;" cx="72" cy="-92" rx="72" ry="18"/>
<text text-anchor="middle" x="72" y="-85.4" style="font-family:Times New Roman;font-size:14.00;">WordOnBoardPath</text>
</g>
<!-- 1&#45;&gt;0 -->
<g id="edge2" class="edge"><title>1&#45;&gt;0</title>
<path style="fill:none;stroke:gray;" d="M72,-74C72,-65 72,-56 72,-46"/>
<polygon style="fill:gray;stroke:gray;" points="75.5001,-46 72,-36 68.5001,-46 75.5001,-46"/>
<text text-anchor="middle" x="74" y="-54.2" style="font-family:Times New Roman;font-size:2.00;fill:blue;">board</text>
</g>
<!-- 2 -->
<g id="node3" class="node"><title>2</title>
<ellipse style="fill:none;stroke:black;" cx="172" cy="-18" rx="36" ry="18"/>
<text text-anchor="middle" x="172" y="-11.4" style="font-family:Times New Roman;font-size:14.00;">TextInput</text>
</g>
<!-- 1&#45;&gt;2 -->
<g id="edge4" class="edge"><title>1&#45;&gt;2</title>
<path style="fill:none;stroke:gray;" d="M95,-75C109,-64 128,-50 144,-39"/>
<polygon style="fill:gray;stroke:gray;" points="146.1,-41.8 152,-33 141.9,-36.2 146.1,-41.8"/>
<text text-anchor="middle" x="124" y="-54.2" style="font-family:Times New Roman;font-size:2.00;fill:blue;">word</text>
</g>
<!-- 3 -->
<g id="node4" class="node"><title>3</title>
<ellipse style="fill:none;stroke:black;" cx="180" cy="-166" rx="108" ry="18"/>
<text text-anchor="middle" x="180" y="-159.4" style="font-family:Times New Roman;font-size:14.00;">SubmitStringWithCheck</text>
</g>
<!-- 3&#45;&gt;1 -->
<g id="edge10" class="edge"><title>3&#45;&gt;1</title>
<path style="fill:none;stroke:gray;" d="M154,-148C139,-139 121,-126 105,-115"/>
<polygon style="fill:gray;stroke:gray;" points="106.262,-111.635 96,-109 102.379,-117.459 106.262,-111.635"/>
<text text-anchor="middle" x="134" y="-128.2" style="font-family:Times New Roman;font-size:2.00;fill:blue;">validator</text>
</g>
<!-- 3&#45;&gt;2 -->
<g id="edge8" class="edge"><title>3&#45;&gt;2</title>
<path style="fill:none;stroke:gray;" d="M179,-148C178,-122 176,-77 174,-46"/>
<polygon style="fill:gray;stroke:gray;" points="177.478,-45.6021 173,-36 170.512,-46.2987 177.478,-45.6021"/>
<text text-anchor="middle" x="180" y="-91.2" style="font-family:Times New Roman;font-size:2.00;fill:blue;">source</text>
</g>
<!-- 4 -->
<g id="node5" class="node"><title>4</title>
<ellipse style="fill:none;stroke:black;" cx="218" cy="-92" rx="19.2428" ry="18"/>
<text text-anchor="middle" x="218" y="-85.4" style="font-family:Times New Roman;font-size:14.00;">List</text>
</g>
<!-- 3&#45;&gt;4 -->
<g id="edge6" class="edge"><title>3&#45;&gt;4</title>
<path style="fill:none;stroke:gray;" d="M189,-148C194,-139 200,-128 205,-118"/>
<polygon style="fill:gray;stroke:gray;" points="208.203,-119.441 210,-109 202.084,-116.042 208.203,-119.441"/>
<text text-anchor="middle" x="201" y="-128.2" style="font-family:Times New Roman;font-size:2.00;fill:blue;">destination</text>
</g>
<!-- 5 -->
<g id="node6" class="node"><title>5</title>
<ellipse style="fill:none;stroke:black;" cx="180" cy="-240" rx="36" ry="18"/>
<text text-anchor="middle" x="180" y="-233.4" style="font-family:Times New Roman;font-size:14.00;">Button</text>
</g>
<!-- 5&#45;&gt;3 -->
<g id="edge12" class="edge"><title>5&#45;&gt;3</title>
<path style="fill:none;stroke:gray;" d="M180,-222C180,-213 180,-204 180,-194"/>
<polygon style="fill:gray;stroke:gray;" points="183.5,-194 180,-184 176.5,-194 183.5,-194"/>
<text text-anchor="middle" x="182" y="-202.2" style="font-family:Times New Roman;font-size:2.00;fill:blue;">action</text>
</g>
<!-- 6 -->
<g id="node7" class="node"><title>6</title>
<ellipse style="fill:none;stroke:black;" cx="258" cy="-240" rx="24.0535" ry="18"/>
<text text-anchor="middle" x="258" y="-233.4" style="font-family:Times New Roman;font-size:14.00;">Label</text>
</g>
<!-- 7 -->
<g id="node8" class="node"><title>7</title>
<ellipse style="fill:none;stroke:black;" cx="336" cy="-240" rx="36" ry="18"/>
<text text-anchor="middle" x="336" y="-233.4" style="font-family:Times New Roman;font-size:14.00;">TextField</text>
</g>
<!-- 8 -->
<g id="node9" class="node"><title>8</title>
<ellipse style="fill:none;stroke:black;" cx="414" cy="-240" rx="24.0535" ry="18"/>
<text text-anchor="middle" x="414" y="-233.4" style="font-family:Times New Roman;font-size:14.00;">Label</text>
</g>
</g>
</svg>
